<mxfile host="app.diagrams.net" modified="2023-12-15T20:12:59.379Z" agent="Mozilla/5.0 (Windows NT 10.0; Win64; x64) AppleWebKit/537.36 (KHTML, like Gecko) Chrome/120.0.0.0 Safari/537.36" etag="lRqhcTM_kBY6dz6eFvSk" version="22.1.9" type="device">
  <diagram name="Страница — 1" id="8RNx4OmEq4b7SmCcKXIz">
    <mxGraphModel dx="7429" dy="1818" grid="0" gridSize="10" guides="1" tooltips="1" connect="1" arrows="1" fold="1" page="0" pageScale="1" pageWidth="827" pageHeight="1169" background="#FFFBF2" math="0" shadow="0">
      <root>
        <mxCell id="0" />
        <mxCell id="1" parent="0" />
        <mxCell id="h79H_1wQwdtYAH2f0OgB-1" value="" style="swimlane;startSize=0;" parent="1" vertex="1">
          <mxGeometry x="-2504" y="1261" width="1350" height="663" as="geometry">
            <mxRectangle x="19" y="-62" width="50" height="44" as="alternateBounds" />
          </mxGeometry>
        </mxCell>
        <mxCell id="h79H_1wQwdtYAH2f0OgB-3" value="" style="endArrow=none;html=1;rounded=0;exitX=0.001;exitY=0.896;exitDx=0;exitDy=0;entryX=1.002;entryY=0.898;entryDx=0;entryDy=0;exitPerimeter=0;entryPerimeter=0;" parent="h79H_1wQwdtYAH2f0OgB-1" edge="1">
          <mxGeometry width="50" height="50" relative="1" as="geometry">
            <mxPoint y="594" as="sourcePoint" />
            <mxPoint x="931" y="596" as="targetPoint" />
          </mxGeometry>
        </mxCell>
        <mxCell id="h79H_1wQwdtYAH2f0OgB-6" style="edgeStyle=orthogonalEdgeStyle;rounded=0;orthogonalLoop=1;jettySize=auto;html=1;endArrow=none;endFill=0;" parent="h79H_1wQwdtYAH2f0OgB-1" edge="1">
          <mxGeometry relative="1" as="geometry">
            <mxPoint x="120" y="662" as="targetPoint" />
            <mxPoint x="120" y="594" as="sourcePoint" />
          </mxGeometry>
        </mxCell>
        <mxCell id="h79H_1wQwdtYAH2f0OgB-7" style="edgeStyle=orthogonalEdgeStyle;rounded=0;orthogonalLoop=1;jettySize=auto;html=1;endArrow=none;endFill=0;" parent="h79H_1wQwdtYAH2f0OgB-1" edge="1">
          <mxGeometry relative="1" as="geometry">
            <mxPoint x="665" y="663" as="targetPoint" />
            <mxPoint x="665" y="595" as="sourcePoint" />
          </mxGeometry>
        </mxCell>
        <mxCell id="h79H_1wQwdtYAH2f0OgB-8" value="NODE:" style="text;html=1;strokeColor=none;fillColor=none;align=center;verticalAlign=middle;whiteSpace=wrap;rounded=0;" parent="h79H_1wQwdtYAH2f0OgB-1" vertex="1">
          <mxGeometry y="591" width="44" height="30" as="geometry" />
        </mxCell>
        <mxCell id="h79H_1wQwdtYAH2f0OgB-9" value="TITILE:" style="text;html=1;strokeColor=none;fillColor=none;align=center;verticalAlign=middle;whiteSpace=wrap;rounded=0;" parent="h79H_1wQwdtYAH2f0OgB-1" vertex="1">
          <mxGeometry x="120" y="591" width="44" height="30" as="geometry" />
        </mxCell>
        <mxCell id="h79H_1wQwdtYAH2f0OgB-10" value="NUMBER:" style="text;html=1;strokeColor=none;fillColor=none;align=center;verticalAlign=middle;whiteSpace=wrap;rounded=0;" parent="h79H_1wQwdtYAH2f0OgB-1" vertex="1">
          <mxGeometry x="663" y="591" width="67" height="30" as="geometry" />
        </mxCell>
        <mxCell id="h79H_1wQwdtYAH2f0OgB-18" value="А1" style="text;html=1;strokeColor=none;fillColor=none;align=center;verticalAlign=middle;whiteSpace=wrap;rounded=0;fontSize=13;" parent="h79H_1wQwdtYAH2f0OgB-1" vertex="1">
          <mxGeometry x="49" y="617" width="23" height="22" as="geometry" />
        </mxCell>
        <mxCell id="h79H_1wQwdtYAH2f0OgB-19" value="АВТОРИЗАЦИЯ В СИСТЕМЕ" style="text;html=1;strokeColor=none;fillColor=none;align=center;verticalAlign=middle;whiteSpace=wrap;rounded=0;fontSize=13;" parent="h79H_1wQwdtYAH2f0OgB-1" vertex="1">
          <mxGeometry x="211" y="621" width="404" height="22" as="geometry" />
        </mxCell>
        <mxCell id="sn503U8lY3atArULx9LJ-47" value="" style="endArrow=classic;html=1;rounded=1;entryX=0.5;entryY=1;entryDx=0;entryDy=0;strokeColor=none;fontSize=11;" parent="h79H_1wQwdtYAH2f0OgB-1" edge="1">
          <mxGeometry width="50" height="50" relative="1" as="geometry">
            <mxPoint x="-1301" y="1018.83" as="sourcePoint" />
            <mxPoint x="387.3299999999999" y="590.9999999999995" as="targetPoint" />
          </mxGeometry>
        </mxCell>
        <mxCell id="h79H_1wQwdtYAH2f0OgB-125" value="" style="endArrow=classic;html=1;rounded=0;entryX=0.75;entryY=1;entryDx=0;entryDy=0;strokeColor=none;fontSize=11;" parent="h79H_1wQwdtYAH2f0OgB-1" edge="1">
          <mxGeometry width="50" height="50" relative="1" as="geometry">
            <mxPoint x="493" y="646.8299999999999" as="sourcePoint" />
            <mxPoint x="836" y="494.9999999999998" as="targetPoint" />
            <Array as="points">
              <mxPoint x="569" y="647" />
              <mxPoint x="868" y="640.8299999999999" />
            </Array>
          </mxGeometry>
        </mxCell>
        <mxCell id="LpadgL2TCFRJ_Je0_eDT-369" style="edgeStyle=orthogonalEdgeStyle;rounded=0;orthogonalLoop=1;jettySize=auto;html=1;exitX=0.998;exitY=0.386;exitDx=0;exitDy=0;entryX=0;entryY=0.25;entryDx=0;entryDy=0;exitPerimeter=0;" edge="1" parent="h79H_1wQwdtYAH2f0OgB-1" source="LpadgL2TCFRJ_Je0_eDT-308" target="LpadgL2TCFRJ_Je0_eDT-329">
          <mxGeometry relative="1" as="geometry" />
        </mxCell>
        <mxCell id="LpadgL2TCFRJ_Je0_eDT-308" value="&lt;br&gt;" style="rounded=0;whiteSpace=wrap;html=1;fillColor=#fffbf2;shadow=1;" vertex="1" parent="h79H_1wQwdtYAH2f0OgB-1">
          <mxGeometry x="190" y="99" width="153" height="74" as="geometry" />
        </mxCell>
        <mxCell id="LpadgL2TCFRJ_Je0_eDT-309" value="" style="endArrow=none;html=1;rounded=0;exitX=0;exitY=0.75;exitDx=0;exitDy=0;entryX=1;entryY=0.75;entryDx=0;entryDy=0;" edge="1" parent="h79H_1wQwdtYAH2f0OgB-1">
          <mxGeometry width="50" height="50" relative="1" as="geometry">
            <mxPoint x="190" y="144" as="sourcePoint" />
            <mxPoint x="343" y="144" as="targetPoint" />
          </mxGeometry>
        </mxCell>
        <mxCell id="LpadgL2TCFRJ_Je0_eDT-310" value="Обработка логина и пароля" style="text;html=1;strokeColor=none;fillColor=none;align=center;verticalAlign=middle;whiteSpace=wrap;rounded=0;" vertex="1" parent="h79H_1wQwdtYAH2f0OgB-1">
          <mxGeometry x="213" y="105" width="107" height="30" as="geometry" />
        </mxCell>
        <mxCell id="LpadgL2TCFRJ_Je0_eDT-311" value="1.1.1" style="text;html=1;strokeColor=none;fillColor=none;align=left;verticalAlign=middle;whiteSpace=wrap;rounded=0;" vertex="1" parent="h79H_1wQwdtYAH2f0OgB-1">
          <mxGeometry x="197" y="147" width="44" height="23" as="geometry" />
        </mxCell>
        <mxCell id="LpadgL2TCFRJ_Je0_eDT-312" value="" style="endArrow=none;html=1;rounded=0;exitX=0.5;exitY=1;exitDx=0;exitDy=0;" edge="1" parent="h79H_1wQwdtYAH2f0OgB-1" source="LpadgL2TCFRJ_Je0_eDT-308">
          <mxGeometry width="50" height="50" relative="1" as="geometry">
            <mxPoint x="266.21" y="172" as="sourcePoint" />
            <mxPoint x="266.71" y="144" as="targetPoint" />
          </mxGeometry>
        </mxCell>
        <mxCell id="LpadgL2TCFRJ_Je0_eDT-329" value="&lt;div style=&quot;&quot;&gt;&amp;nbsp; &amp;nbsp;X&lt;/div&gt;" style="rounded=0;whiteSpace=wrap;html=1;fillColor=#FFFBF2;align=center;shadow=1;strokeWidth=1;" vertex="1" parent="h79H_1wQwdtYAH2f0OgB-1">
          <mxGeometry x="387" y="120" width="38" height="30" as="geometry" />
        </mxCell>
        <mxCell id="LpadgL2TCFRJ_Je0_eDT-330" style="edgeStyle=orthogonalEdgeStyle;rounded=0;orthogonalLoop=1;jettySize=auto;html=1;exitX=0.25;exitY=0;exitDx=0;exitDy=0;entryX=0.25;entryY=1;entryDx=0;entryDy=0;endArrow=none;endFill=0;strokeColor=default;" edge="1" parent="h79H_1wQwdtYAH2f0OgB-1" source="LpadgL2TCFRJ_Je0_eDT-329" target="LpadgL2TCFRJ_Je0_eDT-329">
          <mxGeometry relative="1" as="geometry">
            <Array as="points">
              <mxPoint x="396" y="120" />
              <mxPoint x="396" y="150" />
            </Array>
          </mxGeometry>
        </mxCell>
        <mxCell id="LpadgL2TCFRJ_Je0_eDT-472" style="edgeStyle=orthogonalEdgeStyle;rounded=0;orthogonalLoop=1;jettySize=auto;html=1;exitX=1;exitY=0.5;exitDx=0;exitDy=0;entryX=0;entryY=0.5;entryDx=0;entryDy=0;" edge="1" parent="h79H_1wQwdtYAH2f0OgB-1" source="LpadgL2TCFRJ_Je0_eDT-331" target="LpadgL2TCFRJ_Je0_eDT-340">
          <mxGeometry relative="1" as="geometry" />
        </mxCell>
        <mxCell id="LpadgL2TCFRJ_Je0_eDT-473" style="edgeStyle=orthogonalEdgeStyle;rounded=0;orthogonalLoop=1;jettySize=auto;html=1;entryX=-0.009;entryY=0.626;entryDx=0;entryDy=0;entryPerimeter=0;" edge="1" parent="h79H_1wQwdtYAH2f0OgB-1" source="LpadgL2TCFRJ_Je0_eDT-331" target="LpadgL2TCFRJ_Je0_eDT-335">
          <mxGeometry relative="1" as="geometry">
            <mxPoint x="542.4285714285716" y="86.35714285714266" as="targetPoint" />
            <Array as="points">
              <mxPoint x="520" y="135" />
              <mxPoint x="520" y="87" />
            </Array>
          </mxGeometry>
        </mxCell>
        <mxCell id="LpadgL2TCFRJ_Je0_eDT-331" value="&lt;div style=&quot;&quot;&gt;&amp;nbsp; &amp;amp;&lt;/div&gt;" style="rounded=0;whiteSpace=wrap;html=1;fillColor=#FFFBF2;align=center;shadow=1;strokeWidth=1;" vertex="1" parent="h79H_1wQwdtYAH2f0OgB-1">
          <mxGeometry x="459" y="120" width="38" height="30" as="geometry" />
        </mxCell>
        <mxCell id="LpadgL2TCFRJ_Je0_eDT-328" style="edgeStyle=orthogonalEdgeStyle;rounded=0;orthogonalLoop=1;jettySize=auto;html=1;exitX=1;exitY=0.5;exitDx=0;exitDy=0;entryX=0;entryY=0.5;entryDx=0;entryDy=0;" edge="1" parent="h79H_1wQwdtYAH2f0OgB-1" source="LpadgL2TCFRJ_Je0_eDT-329" target="LpadgL2TCFRJ_Je0_eDT-331">
          <mxGeometry relative="1" as="geometry" />
        </mxCell>
        <mxCell id="LpadgL2TCFRJ_Je0_eDT-332" style="edgeStyle=orthogonalEdgeStyle;rounded=0;orthogonalLoop=1;jettySize=auto;html=1;exitX=0.25;exitY=0;exitDx=0;exitDy=0;entryX=0.25;entryY=1;entryDx=0;entryDy=0;endArrow=none;endFill=0;strokeColor=default;" edge="1" parent="h79H_1wQwdtYAH2f0OgB-1" source="LpadgL2TCFRJ_Je0_eDT-331" target="LpadgL2TCFRJ_Je0_eDT-331">
          <mxGeometry relative="1" as="geometry">
            <Array as="points">
              <mxPoint x="468" y="120" />
              <mxPoint x="468" y="150" />
            </Array>
          </mxGeometry>
        </mxCell>
        <mxCell id="LpadgL2TCFRJ_Je0_eDT-333" value="J1" style="text;html=1;strokeColor=none;fillColor=none;align=center;verticalAlign=middle;whiteSpace=wrap;rounded=0;" vertex="1" parent="h79H_1wQwdtYAH2f0OgB-1">
          <mxGeometry x="465.5" y="155.5" width="25" height="21.5" as="geometry" />
        </mxCell>
        <mxCell id="LpadgL2TCFRJ_Je0_eDT-334" value="J3" style="text;html=1;strokeColor=none;fillColor=none;align=center;verticalAlign=middle;whiteSpace=wrap;rounded=0;" vertex="1" parent="h79H_1wQwdtYAH2f0OgB-1">
          <mxGeometry x="393.5" y="155.5" width="25" height="21.5" as="geometry" />
        </mxCell>
        <mxCell id="LpadgL2TCFRJ_Je0_eDT-386" style="edgeStyle=orthogonalEdgeStyle;rounded=0;orthogonalLoop=1;jettySize=auto;html=1;entryX=0.001;entryY=0.459;entryDx=0;entryDy=0;entryPerimeter=0;" edge="1" parent="h79H_1wQwdtYAH2f0OgB-1" source="LpadgL2TCFRJ_Je0_eDT-335" target="LpadgL2TCFRJ_Je0_eDT-350">
          <mxGeometry relative="1" as="geometry" />
        </mxCell>
        <mxCell id="LpadgL2TCFRJ_Je0_eDT-335" value="&lt;br&gt;" style="rounded=0;whiteSpace=wrap;html=1;fillColor=#fffbf2;shadow=1;" vertex="1" parent="h79H_1wQwdtYAH2f0OgB-1">
          <mxGeometry x="543" y="40.5" width="153" height="74" as="geometry" />
        </mxCell>
        <mxCell id="LpadgL2TCFRJ_Je0_eDT-336" value="" style="endArrow=none;html=1;rounded=0;exitX=0;exitY=0.75;exitDx=0;exitDy=0;entryX=1;entryY=0.75;entryDx=0;entryDy=0;" edge="1" parent="h79H_1wQwdtYAH2f0OgB-1">
          <mxGeometry width="50" height="50" relative="1" as="geometry">
            <mxPoint x="543" y="85.5" as="sourcePoint" />
            <mxPoint x="696" y="85.5" as="targetPoint" />
          </mxGeometry>
        </mxCell>
        <mxCell id="LpadgL2TCFRJ_Je0_eDT-337" value="Соискатель найден" style="text;html=1;strokeColor=none;fillColor=none;align=center;verticalAlign=middle;whiteSpace=wrap;rounded=0;" vertex="1" parent="h79H_1wQwdtYAH2f0OgB-1">
          <mxGeometry x="566" y="46.5" width="107" height="30" as="geometry" />
        </mxCell>
        <mxCell id="LpadgL2TCFRJ_Je0_eDT-338" value="1.1.2" style="text;html=1;strokeColor=none;fillColor=none;align=left;verticalAlign=middle;whiteSpace=wrap;rounded=0;" vertex="1" parent="h79H_1wQwdtYAH2f0OgB-1">
          <mxGeometry x="549" y="89" width="44" height="23" as="geometry" />
        </mxCell>
        <mxCell id="LpadgL2TCFRJ_Je0_eDT-339" value="" style="endArrow=none;html=1;rounded=0;exitX=0.5;exitY=1;exitDx=0;exitDy=0;" edge="1" parent="h79H_1wQwdtYAH2f0OgB-1" source="LpadgL2TCFRJ_Je0_eDT-335">
          <mxGeometry width="50" height="50" relative="1" as="geometry">
            <mxPoint x="619.21" y="113.5" as="sourcePoint" />
            <mxPoint x="619.71" y="85.5" as="targetPoint" />
          </mxGeometry>
        </mxCell>
        <mxCell id="LpadgL2TCFRJ_Je0_eDT-388" style="edgeStyle=orthogonalEdgeStyle;rounded=0;orthogonalLoop=1;jettySize=auto;html=1;entryX=0;entryY=0.5;entryDx=0;entryDy=0;" edge="1" parent="h79H_1wQwdtYAH2f0OgB-1" source="LpadgL2TCFRJ_Je0_eDT-340" target="LpadgL2TCFRJ_Je0_eDT-355">
          <mxGeometry relative="1" as="geometry" />
        </mxCell>
        <mxCell id="LpadgL2TCFRJ_Je0_eDT-340" value="&lt;br&gt;" style="rounded=0;whiteSpace=wrap;html=1;fillColor=#fffbf2;shadow=1;" vertex="1" parent="h79H_1wQwdtYAH2f0OgB-1">
          <mxGeometry x="543" y="144" width="153" height="74" as="geometry" />
        </mxCell>
        <mxCell id="LpadgL2TCFRJ_Je0_eDT-341" value="" style="endArrow=none;html=1;rounded=0;exitX=0;exitY=0.75;exitDx=0;exitDy=0;entryX=1;entryY=0.75;entryDx=0;entryDy=0;" edge="1" parent="h79H_1wQwdtYAH2f0OgB-1">
          <mxGeometry width="50" height="50" relative="1" as="geometry">
            <mxPoint x="543" y="189" as="sourcePoint" />
            <mxPoint x="696" y="189" as="targetPoint" />
          </mxGeometry>
        </mxCell>
        <mxCell id="LpadgL2TCFRJ_Je0_eDT-342" value="Соискатель не найден" style="text;html=1;strokeColor=none;fillColor=none;align=center;verticalAlign=middle;whiteSpace=wrap;rounded=0;" vertex="1" parent="h79H_1wQwdtYAH2f0OgB-1">
          <mxGeometry x="566" y="150" width="107" height="30" as="geometry" />
        </mxCell>
        <mxCell id="LpadgL2TCFRJ_Je0_eDT-343" value="1.1.3" style="text;html=1;strokeColor=none;fillColor=none;align=left;verticalAlign=middle;whiteSpace=wrap;rounded=0;" vertex="1" parent="h79H_1wQwdtYAH2f0OgB-1">
          <mxGeometry x="549" y="193" width="44" height="23" as="geometry" />
        </mxCell>
        <mxCell id="LpadgL2TCFRJ_Je0_eDT-344" value="" style="endArrow=none;html=1;rounded=0;exitX=0.5;exitY=1;exitDx=0;exitDy=0;" edge="1" parent="h79H_1wQwdtYAH2f0OgB-1" source="LpadgL2TCFRJ_Je0_eDT-340">
          <mxGeometry width="50" height="50" relative="1" as="geometry">
            <mxPoint x="619.21" y="217" as="sourcePoint" />
            <mxPoint x="619.71" y="189" as="targetPoint" />
          </mxGeometry>
        </mxCell>
        <mxCell id="LpadgL2TCFRJ_Je0_eDT-384" style="edgeStyle=orthogonalEdgeStyle;rounded=0;orthogonalLoop=1;jettySize=auto;html=1;entryX=0;entryY=0.75;entryDx=0;entryDy=0;exitX=1;exitY=0.75;exitDx=0;exitDy=0;" edge="1" parent="h79H_1wQwdtYAH2f0OgB-1" source="LpadgL2TCFRJ_Je0_eDT-345" target="LpadgL2TCFRJ_Je0_eDT-329">
          <mxGeometry relative="1" as="geometry">
            <Array as="points">
              <mxPoint x="1236" y="121.5" />
              <mxPoint x="1236" y="239.5" />
              <mxPoint x="367" y="239.5" />
              <mxPoint x="367" y="142.5" />
            </Array>
          </mxGeometry>
        </mxCell>
        <mxCell id="LpadgL2TCFRJ_Je0_eDT-385" style="edgeStyle=orthogonalEdgeStyle;rounded=0;orthogonalLoop=1;jettySize=auto;html=1;entryX=1;entryY=0.5;entryDx=0;entryDy=0;" edge="1" parent="h79H_1wQwdtYAH2f0OgB-1" source="LpadgL2TCFRJ_Je0_eDT-345" target="LpadgL2TCFRJ_Je0_eDT-378">
          <mxGeometry relative="1" as="geometry">
            <Array as="points">
              <mxPoint x="1260" y="114" />
              <mxPoint x="1260" y="403" />
            </Array>
          </mxGeometry>
        </mxCell>
        <mxCell id="LpadgL2TCFRJ_Je0_eDT-345" value="&lt;div style=&quot;&quot;&gt;&amp;nbsp; &amp;nbsp;X&lt;/div&gt;" style="rounded=0;whiteSpace=wrap;html=1;fillColor=#FFFBF2;align=center;shadow=1;strokeWidth=1;" vertex="1" parent="h79H_1wQwdtYAH2f0OgB-1">
          <mxGeometry x="1190" y="99" width="38" height="30" as="geometry" />
        </mxCell>
        <mxCell id="LpadgL2TCFRJ_Je0_eDT-346" style="edgeStyle=orthogonalEdgeStyle;rounded=0;orthogonalLoop=1;jettySize=auto;html=1;exitX=0.25;exitY=0;exitDx=0;exitDy=0;entryX=0.25;entryY=1;entryDx=0;entryDy=0;endArrow=none;endFill=0;strokeColor=default;" edge="1" parent="h79H_1wQwdtYAH2f0OgB-1" source="LpadgL2TCFRJ_Je0_eDT-345" target="LpadgL2TCFRJ_Je0_eDT-345">
          <mxGeometry relative="1" as="geometry">
            <Array as="points">
              <mxPoint x="1199" y="99" />
              <mxPoint x="1199" y="129" />
            </Array>
          </mxGeometry>
        </mxCell>
        <mxCell id="LpadgL2TCFRJ_Je0_eDT-347" style="edgeStyle=orthogonalEdgeStyle;rounded=0;orthogonalLoop=1;jettySize=auto;html=1;entryX=0;entryY=0.5;entryDx=0;entryDy=0;" edge="1" parent="h79H_1wQwdtYAH2f0OgB-1" source="LpadgL2TCFRJ_Je0_eDT-348" target="LpadgL2TCFRJ_Je0_eDT-345">
          <mxGeometry relative="1" as="geometry" />
        </mxCell>
        <mxCell id="LpadgL2TCFRJ_Je0_eDT-348" value="&lt;div style=&quot;&quot;&gt;&amp;nbsp; &amp;amp;&lt;/div&gt;" style="rounded=0;whiteSpace=wrap;html=1;fillColor=#FFFBF2;align=center;shadow=1;strokeWidth=1;" vertex="1" parent="h79H_1wQwdtYAH2f0OgB-1">
          <mxGeometry x="1121" y="99" width="38" height="30" as="geometry" />
        </mxCell>
        <mxCell id="LpadgL2TCFRJ_Je0_eDT-349" style="edgeStyle=orthogonalEdgeStyle;rounded=0;orthogonalLoop=1;jettySize=auto;html=1;exitX=0.25;exitY=0;exitDx=0;exitDy=0;entryX=0.25;entryY=1;entryDx=0;entryDy=0;endArrow=none;endFill=0;strokeColor=default;" edge="1" parent="h79H_1wQwdtYAH2f0OgB-1" source="LpadgL2TCFRJ_Je0_eDT-348" target="LpadgL2TCFRJ_Je0_eDT-348">
          <mxGeometry relative="1" as="geometry">
            <Array as="points">
              <mxPoint x="1128" y="99" />
              <mxPoint x="1128" y="129" />
            </Array>
          </mxGeometry>
        </mxCell>
        <mxCell id="LpadgL2TCFRJ_Je0_eDT-474" style="edgeStyle=orthogonalEdgeStyle;rounded=0;orthogonalLoop=1;jettySize=auto;html=1;entryX=0;entryY=0.5;entryDx=0;entryDy=0;" edge="1" parent="h79H_1wQwdtYAH2f0OgB-1" source="LpadgL2TCFRJ_Je0_eDT-350" target="LpadgL2TCFRJ_Je0_eDT-348">
          <mxGeometry relative="1" as="geometry">
            <Array as="points">
              <mxPoint x="1101" y="80" />
              <mxPoint x="1101" y="114" />
            </Array>
          </mxGeometry>
        </mxCell>
        <mxCell id="LpadgL2TCFRJ_Je0_eDT-350" value="&lt;br&gt;" style="rounded=0;whiteSpace=wrap;html=1;fillColor=#fffbf2;shadow=1;" vertex="1" parent="h79H_1wQwdtYAH2f0OgB-1">
          <mxGeometry x="741" y="43" width="153" height="74" as="geometry" />
        </mxCell>
        <mxCell id="LpadgL2TCFRJ_Je0_eDT-351" value="" style="endArrow=none;html=1;rounded=0;exitX=0;exitY=0.75;exitDx=0;exitDy=0;entryX=1;entryY=0.75;entryDx=0;entryDy=0;" edge="1" parent="h79H_1wQwdtYAH2f0OgB-1">
          <mxGeometry width="50" height="50" relative="1" as="geometry">
            <mxPoint x="741" y="88" as="sourcePoint" />
            <mxPoint x="894" y="88" as="targetPoint" />
          </mxGeometry>
        </mxCell>
        <mxCell id="LpadgL2TCFRJ_Je0_eDT-352" value="Полученные данных из БД" style="text;html=1;strokeColor=none;fillColor=none;align=center;verticalAlign=middle;whiteSpace=wrap;rounded=0;" vertex="1" parent="h79H_1wQwdtYAH2f0OgB-1">
          <mxGeometry x="764" y="49" width="107" height="30" as="geometry" />
        </mxCell>
        <mxCell id="LpadgL2TCFRJ_Je0_eDT-353" value="1.1.4" style="text;html=1;strokeColor=none;fillColor=none;align=left;verticalAlign=middle;whiteSpace=wrap;rounded=0;" vertex="1" parent="h79H_1wQwdtYAH2f0OgB-1">
          <mxGeometry x="747" y="91.5" width="44" height="23" as="geometry" />
        </mxCell>
        <mxCell id="LpadgL2TCFRJ_Je0_eDT-354" value="" style="endArrow=none;html=1;rounded=0;exitX=0.5;exitY=1;exitDx=0;exitDy=0;" edge="1" parent="h79H_1wQwdtYAH2f0OgB-1" source="LpadgL2TCFRJ_Je0_eDT-350">
          <mxGeometry width="50" height="50" relative="1" as="geometry">
            <mxPoint x="817.21" y="116" as="sourcePoint" />
            <mxPoint x="817.71" y="88" as="targetPoint" />
          </mxGeometry>
        </mxCell>
        <mxCell id="LpadgL2TCFRJ_Je0_eDT-389" style="edgeStyle=orthogonalEdgeStyle;rounded=0;orthogonalLoop=1;jettySize=auto;html=1;entryX=0;entryY=0.5;entryDx=0;entryDy=0;" edge="1" parent="h79H_1wQwdtYAH2f0OgB-1" source="LpadgL2TCFRJ_Je0_eDT-355" target="LpadgL2TCFRJ_Je0_eDT-360">
          <mxGeometry relative="1" as="geometry" />
        </mxCell>
        <mxCell id="LpadgL2TCFRJ_Je0_eDT-355" value="&lt;br&gt;" style="rounded=0;whiteSpace=wrap;html=1;fillColor=#fffbf2;shadow=1;" vertex="1" parent="h79H_1wQwdtYAH2f0OgB-1">
          <mxGeometry x="741" y="144" width="153" height="74" as="geometry" />
        </mxCell>
        <mxCell id="LpadgL2TCFRJ_Je0_eDT-356" value="" style="endArrow=none;html=1;rounded=0;exitX=0;exitY=0.75;exitDx=0;exitDy=0;entryX=1;entryY=0.75;entryDx=0;entryDy=0;" edge="1" parent="h79H_1wQwdtYAH2f0OgB-1">
          <mxGeometry width="50" height="50" relative="1" as="geometry">
            <mxPoint x="741" y="189" as="sourcePoint" />
            <mxPoint x="894" y="189" as="targetPoint" />
          </mxGeometry>
        </mxCell>
        <mxCell id="LpadgL2TCFRJ_Je0_eDT-357" value="Регистрация соискателя" style="text;html=1;strokeColor=none;fillColor=none;align=center;verticalAlign=middle;whiteSpace=wrap;rounded=0;" vertex="1" parent="h79H_1wQwdtYAH2f0OgB-1">
          <mxGeometry x="764" y="150" width="107" height="30" as="geometry" />
        </mxCell>
        <mxCell id="LpadgL2TCFRJ_Je0_eDT-358" value="1.1.5" style="text;html=1;strokeColor=none;fillColor=none;align=left;verticalAlign=middle;whiteSpace=wrap;rounded=0;" vertex="1" parent="h79H_1wQwdtYAH2f0OgB-1">
          <mxGeometry x="747" y="193" width="44" height="23" as="geometry" />
        </mxCell>
        <mxCell id="LpadgL2TCFRJ_Je0_eDT-359" value="" style="endArrow=none;html=1;rounded=0;exitX=0.5;exitY=1;exitDx=0;exitDy=0;" edge="1" parent="h79H_1wQwdtYAH2f0OgB-1" source="LpadgL2TCFRJ_Je0_eDT-355">
          <mxGeometry width="50" height="50" relative="1" as="geometry">
            <mxPoint x="817.21" y="217" as="sourcePoint" />
            <mxPoint x="817.71" y="189" as="targetPoint" />
          </mxGeometry>
        </mxCell>
        <mxCell id="LpadgL2TCFRJ_Je0_eDT-475" style="edgeStyle=orthogonalEdgeStyle;rounded=0;orthogonalLoop=1;jettySize=auto;html=1;entryX=0;entryY=0.5;entryDx=0;entryDy=0;" edge="1" parent="h79H_1wQwdtYAH2f0OgB-1" source="LpadgL2TCFRJ_Je0_eDT-360" target="LpadgL2TCFRJ_Je0_eDT-348">
          <mxGeometry relative="1" as="geometry">
            <Array as="points">
              <mxPoint x="1101" y="181" />
              <mxPoint x="1101" y="114" />
            </Array>
          </mxGeometry>
        </mxCell>
        <mxCell id="LpadgL2TCFRJ_Je0_eDT-360" value="&lt;br&gt;" style="rounded=0;whiteSpace=wrap;html=1;fillColor=#fffbf2;shadow=1;" vertex="1" parent="h79H_1wQwdtYAH2f0OgB-1">
          <mxGeometry x="934" y="144" width="153" height="74" as="geometry" />
        </mxCell>
        <mxCell id="LpadgL2TCFRJ_Je0_eDT-361" value="" style="endArrow=none;html=1;rounded=0;exitX=0;exitY=0.75;exitDx=0;exitDy=0;entryX=1;entryY=0.75;entryDx=0;entryDy=0;" edge="1" parent="h79H_1wQwdtYAH2f0OgB-1">
          <mxGeometry width="50" height="50" relative="1" as="geometry">
            <mxPoint x="934" y="189" as="sourcePoint" />
            <mxPoint x="1087" y="189" as="targetPoint" />
          </mxGeometry>
        </mxCell>
        <mxCell id="LpadgL2TCFRJ_Je0_eDT-362" value="Внесение данных в БД" style="text;html=1;strokeColor=none;fillColor=none;align=center;verticalAlign=middle;whiteSpace=wrap;rounded=0;" vertex="1" parent="h79H_1wQwdtYAH2f0OgB-1">
          <mxGeometry x="957" y="150" width="107" height="30" as="geometry" />
        </mxCell>
        <mxCell id="LpadgL2TCFRJ_Je0_eDT-363" value="1.1.6" style="text;html=1;strokeColor=none;fillColor=none;align=left;verticalAlign=middle;whiteSpace=wrap;rounded=0;" vertex="1" parent="h79H_1wQwdtYAH2f0OgB-1">
          <mxGeometry x="940" y="193" width="44" height="23" as="geometry" />
        </mxCell>
        <mxCell id="LpadgL2TCFRJ_Je0_eDT-364" value="" style="endArrow=none;html=1;rounded=0;exitX=0.5;exitY=1;exitDx=0;exitDy=0;" edge="1" parent="h79H_1wQwdtYAH2f0OgB-1" source="LpadgL2TCFRJ_Je0_eDT-360">
          <mxGeometry width="50" height="50" relative="1" as="geometry">
            <mxPoint x="1010.21" y="217" as="sourcePoint" />
            <mxPoint x="1010.71" y="189" as="targetPoint" />
          </mxGeometry>
        </mxCell>
        <mxCell id="LpadgL2TCFRJ_Je0_eDT-365" value="&lt;font style=&quot;font-size: 11px;&quot;&gt;Логин и пароль&lt;/font&gt;" style="text;html=1;strokeColor=none;fillColor=none;align=left;verticalAlign=middle;whiteSpace=wrap;rounded=0;fontSize=11;" vertex="1" parent="h79H_1wQwdtYAH2f0OgB-1">
          <mxGeometry x="32" y="99" width="85" height="17" as="geometry" />
        </mxCell>
        <mxCell id="LpadgL2TCFRJ_Je0_eDT-366" style="edgeStyle=orthogonalEdgeStyle;rounded=0;orthogonalLoop=1;jettySize=auto;html=1;entryX=0;entryY=0.5;entryDx=0;entryDy=0;fontSize=11;spacing=1;" edge="1" parent="h79H_1wQwdtYAH2f0OgB-1">
          <mxGeometry relative="1" as="geometry">
            <mxPoint x="33" y="147.17000000000007" as="sourcePoint" />
            <mxPoint x="190" y="147.01" as="targetPoint" />
            <Array as="points">
              <mxPoint x="103" y="147.51" />
              <mxPoint x="103" y="147.51" />
            </Array>
          </mxGeometry>
        </mxCell>
        <mxCell id="LpadgL2TCFRJ_Je0_eDT-367" value="&lt;font style=&quot;font-size: 11px;&quot;&gt;Личные данные соискателя&lt;/font&gt;" style="text;html=1;strokeColor=none;fillColor=none;align=left;verticalAlign=middle;whiteSpace=wrap;rounded=0;fontSize=11;" vertex="1" parent="h79H_1wQwdtYAH2f0OgB-1">
          <mxGeometry x="32" y="127.47000000000003" width="145" height="15.11" as="geometry" />
        </mxCell>
        <mxCell id="LpadgL2TCFRJ_Je0_eDT-368" style="edgeStyle=orthogonalEdgeStyle;rounded=0;orthogonalLoop=1;jettySize=auto;html=1;entryX=0;entryY=0.5;entryDx=0;entryDy=0;fontSize=11;spacing=1;" edge="1" parent="h79H_1wQwdtYAH2f0OgB-1">
          <mxGeometry relative="1" as="geometry">
            <mxPoint x="33" y="119.32999999999993" as="sourcePoint" />
            <mxPoint x="190" y="119.17000000000007" as="targetPoint" />
            <Array as="points">
              <mxPoint x="103" y="119.67000000000007" />
              <mxPoint x="103" y="119.67000000000007" />
            </Array>
          </mxGeometry>
        </mxCell>
        <mxCell id="LpadgL2TCFRJ_Je0_eDT-488" style="edgeStyle=orthogonalEdgeStyle;rounded=0;orthogonalLoop=1;jettySize=auto;html=1;entryX=1;entryY=0.5;entryDx=0;entryDy=0;" edge="1" parent="h79H_1wQwdtYAH2f0OgB-1" source="LpadgL2TCFRJ_Je0_eDT-378">
          <mxGeometry relative="1" as="geometry">
            <mxPoint x="948.0000000000005" y="403.00000000000045" as="targetPoint" />
          </mxGeometry>
        </mxCell>
        <mxCell id="LpadgL2TCFRJ_Je0_eDT-378" value="&lt;br&gt;" style="rounded=0;whiteSpace=wrap;html=1;fillColor=#fffbf2;shadow=1;" vertex="1" parent="h79H_1wQwdtYAH2f0OgB-1">
          <mxGeometry x="1009" y="366" width="153" height="74" as="geometry" />
        </mxCell>
        <mxCell id="LpadgL2TCFRJ_Je0_eDT-379" value="" style="endArrow=none;html=1;rounded=0;exitX=0;exitY=0.75;exitDx=0;exitDy=0;entryX=1;entryY=0.75;entryDx=0;entryDy=0;" edge="1" parent="h79H_1wQwdtYAH2f0OgB-1">
          <mxGeometry width="50" height="50" relative="1" as="geometry">
            <mxPoint x="1009" y="411" as="sourcePoint" />
            <mxPoint x="1162" y="411" as="targetPoint" />
          </mxGeometry>
        </mxCell>
        <mxCell id="LpadgL2TCFRJ_Je0_eDT-380" value="Создание сессии&lt;br&gt;в системе" style="text;html=1;strokeColor=none;fillColor=none;align=center;verticalAlign=middle;whiteSpace=wrap;rounded=0;" vertex="1" parent="h79H_1wQwdtYAH2f0OgB-1">
          <mxGeometry x="1032" y="372" width="106" height="30" as="geometry" />
        </mxCell>
        <mxCell id="LpadgL2TCFRJ_Je0_eDT-381" value="1.1.7" style="text;html=1;strokeColor=none;fillColor=none;align=left;verticalAlign=middle;whiteSpace=wrap;rounded=0;" vertex="1" parent="h79H_1wQwdtYAH2f0OgB-1">
          <mxGeometry x="1015" y="415" width="44" height="23" as="geometry" />
        </mxCell>
        <mxCell id="LpadgL2TCFRJ_Je0_eDT-382" value="" style="endArrow=none;html=1;rounded=0;exitX=0.5;exitY=1;exitDx=0;exitDy=0;" edge="1" parent="h79H_1wQwdtYAH2f0OgB-1" source="LpadgL2TCFRJ_Je0_eDT-378">
          <mxGeometry width="50" height="50" relative="1" as="geometry">
            <mxPoint x="1085.21" y="439" as="sourcePoint" />
            <mxPoint x="1085.71" y="411" as="targetPoint" />
          </mxGeometry>
        </mxCell>
        <mxCell id="LpadgL2TCFRJ_Je0_eDT-394" style="edgeStyle=orthogonalEdgeStyle;rounded=0;orthogonalLoop=1;jettySize=auto;html=1;exitX=0.5;exitY=0;exitDx=0;exitDy=0;entryX=0.5;entryY=1;entryDx=0;entryDy=0;dashed=1;" edge="1" parent="h79H_1wQwdtYAH2f0OgB-1" source="LpadgL2TCFRJ_Je0_eDT-390" target="LpadgL2TCFRJ_Je0_eDT-308">
          <mxGeometry relative="1" as="geometry" />
        </mxCell>
        <mxCell id="LpadgL2TCFRJ_Je0_eDT-396" style="edgeStyle=orthogonalEdgeStyle;rounded=0;orthogonalLoop=1;jettySize=auto;html=1;entryX=0.5;entryY=1;entryDx=0;entryDy=0;dashed=1;" edge="1" parent="h79H_1wQwdtYAH2f0OgB-1" source="LpadgL2TCFRJ_Je0_eDT-390" target="LpadgL2TCFRJ_Je0_eDT-355">
          <mxGeometry relative="1" as="geometry" />
        </mxCell>
        <mxCell id="LpadgL2TCFRJ_Je0_eDT-517" style="edgeStyle=orthogonalEdgeStyle;rounded=0;orthogonalLoop=1;jettySize=auto;html=1;exitX=1;exitY=0.5;exitDx=0;exitDy=0;entryX=0.5;entryY=0;entryDx=0;entryDy=0;dashed=1;" edge="1" parent="h79H_1wQwdtYAH2f0OgB-1" source="LpadgL2TCFRJ_Je0_eDT-390" target="LpadgL2TCFRJ_Je0_eDT-507">
          <mxGeometry relative="1" as="geometry" />
        </mxCell>
        <mxCell id="LpadgL2TCFRJ_Je0_eDT-530" style="edgeStyle=orthogonalEdgeStyle;rounded=0;orthogonalLoop=1;jettySize=auto;html=1;entryX=0.5;entryY=1;entryDx=0;entryDy=0;exitX=0;exitY=0.5;exitDx=0;exitDy=0;dashed=1;" edge="1" parent="h79H_1wQwdtYAH2f0OgB-1" source="LpadgL2TCFRJ_Je0_eDT-390" target="LpadgL2TCFRJ_Je0_eDT-512">
          <mxGeometry relative="1" as="geometry">
            <Array as="points">
              <mxPoint x="190" y="289" />
              <mxPoint x="150" y="289" />
              <mxPoint x="150" y="518" />
              <mxPoint x="715" y="518" />
            </Array>
          </mxGeometry>
        </mxCell>
        <mxCell id="LpadgL2TCFRJ_Je0_eDT-546" style="edgeStyle=orthogonalEdgeStyle;rounded=0;orthogonalLoop=1;jettySize=auto;html=1;entryX=0.5;entryY=1;entryDx=0;entryDy=0;exitX=-0.001;exitY=0.535;exitDx=0;exitDy=0;exitPerimeter=0;dashed=1;" edge="1" parent="h79H_1wQwdtYAH2f0OgB-1" source="LpadgL2TCFRJ_Je0_eDT-390" target="LpadgL2TCFRJ_Je0_eDT-539">
          <mxGeometry relative="1" as="geometry">
            <Array as="points">
              <mxPoint x="150" y="289" />
              <mxPoint x="150" y="460" />
              <mxPoint x="342" y="460" />
            </Array>
          </mxGeometry>
        </mxCell>
        <mxCell id="LpadgL2TCFRJ_Je0_eDT-390" value="" style="rounded=0;whiteSpace=wrap;html=1;fillColor=#fffbf2;shadow=1;" vertex="1" parent="h79H_1wQwdtYAH2f0OgB-1">
          <mxGeometry x="190" y="255.5" width="153" height="62.5" as="geometry" />
        </mxCell>
        <mxCell id="LpadgL2TCFRJ_Je0_eDT-391" value="" style="endArrow=none;html=1;rounded=0;exitX=0;exitY=0.75;exitDx=0;exitDy=0;entryX=1;entryY=0.75;entryDx=0;entryDy=0;" edge="1" parent="h79H_1wQwdtYAH2f0OgB-1">
          <mxGeometry width="50" height="50" relative="1" as="geometry">
            <mxPoint x="190" y="300.495" as="sourcePoint" />
            <mxPoint x="343" y="300.495" as="targetPoint" />
          </mxGeometry>
        </mxCell>
        <mxCell id="LpadgL2TCFRJ_Je0_eDT-392" value="OBJECT /&amp;nbsp;&lt;br&gt;Соискатель" style="text;html=1;strokeColor=none;fillColor=none;align=center;verticalAlign=middle;whiteSpace=wrap;rounded=0;" vertex="1" parent="h79H_1wQwdtYAH2f0OgB-1">
          <mxGeometry x="205" y="263.5" width="123" height="30" as="geometry" />
        </mxCell>
        <mxCell id="LpadgL2TCFRJ_Je0_eDT-506" value="" style="edgeStyle=orthogonalEdgeStyle;rounded=0;orthogonalLoop=1;jettySize=auto;html=1;" edge="1" parent="h79H_1wQwdtYAH2f0OgB-1" source="LpadgL2TCFRJ_Je0_eDT-502" target="LpadgL2TCFRJ_Je0_eDT-504">
          <mxGeometry relative="1" as="geometry" />
        </mxCell>
        <mxCell id="LpadgL2TCFRJ_Je0_eDT-502" value="&lt;div style=&quot;&quot;&gt;&amp;nbsp; &amp;nbsp;X&lt;/div&gt;" style="rounded=0;whiteSpace=wrap;html=1;fillColor=#FFFBF2;align=center;shadow=1;strokeWidth=1;" vertex="1" parent="h79H_1wQwdtYAH2f0OgB-1">
          <mxGeometry x="908" y="388" width="38" height="30" as="geometry" />
        </mxCell>
        <mxCell id="LpadgL2TCFRJ_Je0_eDT-503" style="edgeStyle=orthogonalEdgeStyle;rounded=0;orthogonalLoop=1;jettySize=auto;html=1;exitX=0.25;exitY=0;exitDx=0;exitDy=0;entryX=0.25;entryY=1;entryDx=0;entryDy=0;endArrow=none;endFill=0;strokeColor=default;" edge="1" parent="h79H_1wQwdtYAH2f0OgB-1" source="LpadgL2TCFRJ_Je0_eDT-502" target="LpadgL2TCFRJ_Je0_eDT-502">
          <mxGeometry relative="1" as="geometry">
            <Array as="points">
              <mxPoint x="917" y="388" />
              <mxPoint x="917" y="418" />
            </Array>
          </mxGeometry>
        </mxCell>
        <mxCell id="LpadgL2TCFRJ_Je0_eDT-525" style="edgeStyle=orthogonalEdgeStyle;rounded=0;orthogonalLoop=1;jettySize=auto;html=1;entryX=1;entryY=0.5;entryDx=0;entryDy=0;" edge="1" parent="h79H_1wQwdtYAH2f0OgB-1" source="LpadgL2TCFRJ_Je0_eDT-504" target="LpadgL2TCFRJ_Je0_eDT-507">
          <mxGeometry relative="1" as="geometry">
            <Array as="points">
              <mxPoint x="814" y="403" />
              <mxPoint x="814" y="346" />
            </Array>
          </mxGeometry>
        </mxCell>
        <mxCell id="LpadgL2TCFRJ_Je0_eDT-526" style="edgeStyle=orthogonalEdgeStyle;rounded=0;orthogonalLoop=1;jettySize=auto;html=1;entryX=1;entryY=0.5;entryDx=0;entryDy=0;" edge="1" parent="h79H_1wQwdtYAH2f0OgB-1" source="LpadgL2TCFRJ_Je0_eDT-504" target="LpadgL2TCFRJ_Je0_eDT-512">
          <mxGeometry relative="1" as="geometry">
            <Array as="points">
              <mxPoint x="814" y="403" />
              <mxPoint x="814" y="461" />
            </Array>
          </mxGeometry>
        </mxCell>
        <mxCell id="LpadgL2TCFRJ_Je0_eDT-504" value="&lt;div style=&quot;&quot;&gt;&amp;nbsp; &amp;amp;&lt;/div&gt;" style="rounded=0;whiteSpace=wrap;html=1;fillColor=#FFFBF2;align=center;shadow=1;strokeWidth=1;" vertex="1" parent="h79H_1wQwdtYAH2f0OgB-1">
          <mxGeometry x="841" y="388" width="38" height="30" as="geometry" />
        </mxCell>
        <mxCell id="LpadgL2TCFRJ_Je0_eDT-505" style="edgeStyle=orthogonalEdgeStyle;rounded=0;orthogonalLoop=1;jettySize=auto;html=1;exitX=0.25;exitY=0;exitDx=0;exitDy=0;entryX=0.25;entryY=1;entryDx=0;entryDy=0;endArrow=none;endFill=0;strokeColor=default;" edge="1" parent="h79H_1wQwdtYAH2f0OgB-1" source="LpadgL2TCFRJ_Je0_eDT-504" target="LpadgL2TCFRJ_Je0_eDT-504">
          <mxGeometry relative="1" as="geometry">
            <Array as="points">
              <mxPoint x="850" y="388" />
              <mxPoint x="850" y="418" />
            </Array>
          </mxGeometry>
        </mxCell>
        <mxCell id="LpadgL2TCFRJ_Je0_eDT-527" style="edgeStyle=orthogonalEdgeStyle;rounded=0;orthogonalLoop=1;jettySize=auto;html=1;entryX=1;entryY=0.5;entryDx=0;entryDy=0;" edge="1" parent="h79H_1wQwdtYAH2f0OgB-1" source="LpadgL2TCFRJ_Je0_eDT-507" target="LpadgL2TCFRJ_Je0_eDT-518">
          <mxGeometry relative="1" as="geometry">
            <Array as="points">
              <mxPoint x="614" y="346" />
              <mxPoint x="614" y="403" />
            </Array>
          </mxGeometry>
        </mxCell>
        <mxCell id="LpadgL2TCFRJ_Je0_eDT-507" value="&lt;br&gt;" style="rounded=0;whiteSpace=wrap;html=1;fillColor=#fffbf2;shadow=1;" vertex="1" parent="h79H_1wQwdtYAH2f0OgB-1">
          <mxGeometry x="635" y="308.5" width="153" height="74" as="geometry" />
        </mxCell>
        <mxCell id="LpadgL2TCFRJ_Je0_eDT-508" value="" style="endArrow=none;html=1;rounded=0;exitX=0;exitY=0.75;exitDx=0;exitDy=0;entryX=1;entryY=0.75;entryDx=0;entryDy=0;" edge="1" parent="h79H_1wQwdtYAH2f0OgB-1">
          <mxGeometry width="50" height="50" relative="1" as="geometry">
            <mxPoint x="635" y="353.5" as="sourcePoint" />
            <mxPoint x="788" y="353.5" as="targetPoint" />
          </mxGeometry>
        </mxCell>
        <mxCell id="LpadgL2TCFRJ_Je0_eDT-509" value="Создать первое резюме" style="text;html=1;strokeColor=none;fillColor=none;align=center;verticalAlign=middle;whiteSpace=wrap;rounded=0;" vertex="1" parent="h79H_1wQwdtYAH2f0OgB-1">
          <mxGeometry x="658" y="314.5" width="106" height="30" as="geometry" />
        </mxCell>
        <mxCell id="LpadgL2TCFRJ_Je0_eDT-510" value="1.1.8" style="text;html=1;strokeColor=none;fillColor=none;align=left;verticalAlign=middle;whiteSpace=wrap;rounded=0;" vertex="1" parent="h79H_1wQwdtYAH2f0OgB-1">
          <mxGeometry x="641" y="357.5" width="44" height="23" as="geometry" />
        </mxCell>
        <mxCell id="LpadgL2TCFRJ_Je0_eDT-511" value="" style="endArrow=none;html=1;rounded=0;exitX=0.5;exitY=1;exitDx=0;exitDy=0;" edge="1" parent="h79H_1wQwdtYAH2f0OgB-1" source="LpadgL2TCFRJ_Je0_eDT-507">
          <mxGeometry width="50" height="50" relative="1" as="geometry">
            <mxPoint x="711.21" y="381.5" as="sourcePoint" />
            <mxPoint x="711.71" y="353.5" as="targetPoint" />
          </mxGeometry>
        </mxCell>
        <mxCell id="LpadgL2TCFRJ_Je0_eDT-528" style="edgeStyle=orthogonalEdgeStyle;rounded=0;orthogonalLoop=1;jettySize=auto;html=1;entryX=1;entryY=0.5;entryDx=0;entryDy=0;" edge="1" parent="h79H_1wQwdtYAH2f0OgB-1" source="LpadgL2TCFRJ_Je0_eDT-512" target="LpadgL2TCFRJ_Je0_eDT-518">
          <mxGeometry relative="1" as="geometry">
            <Array as="points">
              <mxPoint x="614" y="461" />
              <mxPoint x="614" y="403" />
            </Array>
          </mxGeometry>
        </mxCell>
        <mxCell id="LpadgL2TCFRJ_Je0_eDT-512" value="&lt;br&gt;" style="rounded=0;whiteSpace=wrap;html=1;fillColor=#fffbf2;shadow=1;" vertex="1" parent="h79H_1wQwdtYAH2f0OgB-1">
          <mxGeometry x="638" y="423.5" width="153" height="74" as="geometry" />
        </mxCell>
        <mxCell id="LpadgL2TCFRJ_Je0_eDT-513" value="" style="endArrow=none;html=1;rounded=0;exitX=0;exitY=0.75;exitDx=0;exitDy=0;entryX=1;entryY=0.75;entryDx=0;entryDy=0;" edge="1" parent="h79H_1wQwdtYAH2f0OgB-1">
          <mxGeometry width="50" height="50" relative="1" as="geometry">
            <mxPoint x="638" y="468.5" as="sourcePoint" />
            <mxPoint x="791" y="468.5" as="targetPoint" />
          </mxGeometry>
        </mxCell>
        <mxCell id="LpadgL2TCFRJ_Je0_eDT-514" value="Продолжить работу в системе" style="text;html=1;strokeColor=none;fillColor=none;align=center;verticalAlign=middle;whiteSpace=wrap;rounded=0;" vertex="1" parent="h79H_1wQwdtYAH2f0OgB-1">
          <mxGeometry x="661" y="429.5" width="106" height="30" as="geometry" />
        </mxCell>
        <mxCell id="LpadgL2TCFRJ_Je0_eDT-515" value="1.1.9" style="text;html=1;strokeColor=none;fillColor=none;align=left;verticalAlign=middle;whiteSpace=wrap;rounded=0;" vertex="1" parent="h79H_1wQwdtYAH2f0OgB-1">
          <mxGeometry x="644" y="472.5" width="44" height="23" as="geometry" />
        </mxCell>
        <mxCell id="LpadgL2TCFRJ_Je0_eDT-516" value="" style="endArrow=none;html=1;rounded=0;exitX=0.5;exitY=1;exitDx=0;exitDy=0;" edge="1" parent="h79H_1wQwdtYAH2f0OgB-1" source="LpadgL2TCFRJ_Je0_eDT-512">
          <mxGeometry width="50" height="50" relative="1" as="geometry">
            <mxPoint x="714.21" y="496.5" as="sourcePoint" />
            <mxPoint x="714.71" y="468.5" as="targetPoint" />
          </mxGeometry>
        </mxCell>
        <mxCell id="LpadgL2TCFRJ_Je0_eDT-529" value="" style="edgeStyle=orthogonalEdgeStyle;rounded=0;orthogonalLoop=1;jettySize=auto;html=1;" edge="1" parent="h79H_1wQwdtYAH2f0OgB-1" source="LpadgL2TCFRJ_Je0_eDT-518" target="LpadgL2TCFRJ_Je0_eDT-523">
          <mxGeometry relative="1" as="geometry" />
        </mxCell>
        <mxCell id="LpadgL2TCFRJ_Je0_eDT-518" value="&lt;div style=&quot;&quot;&gt;&amp;nbsp; &amp;amp;&lt;/div&gt;" style="rounded=0;whiteSpace=wrap;html=1;fillColor=#FFFBF2;align=center;shadow=1;strokeWidth=1;" vertex="1" parent="h79H_1wQwdtYAH2f0OgB-1">
          <mxGeometry x="549" y="388" width="38" height="30" as="geometry" />
        </mxCell>
        <mxCell id="LpadgL2TCFRJ_Je0_eDT-519" style="edgeStyle=orthogonalEdgeStyle;rounded=0;orthogonalLoop=1;jettySize=auto;html=1;exitX=0.25;exitY=0;exitDx=0;exitDy=0;entryX=0.25;entryY=1;entryDx=0;entryDy=0;endArrow=none;endFill=0;strokeColor=default;" edge="1" parent="h79H_1wQwdtYAH2f0OgB-1" source="LpadgL2TCFRJ_Je0_eDT-518" target="LpadgL2TCFRJ_Je0_eDT-518">
          <mxGeometry relative="1" as="geometry">
            <Array as="points">
              <mxPoint x="558" y="388" />
              <mxPoint x="558" y="418" />
            </Array>
          </mxGeometry>
        </mxCell>
        <mxCell id="LpadgL2TCFRJ_Je0_eDT-545" style="edgeStyle=orthogonalEdgeStyle;rounded=0;orthogonalLoop=1;jettySize=auto;html=1;entryX=1;entryY=0.5;entryDx=0;entryDy=0;" edge="1" parent="h79H_1wQwdtYAH2f0OgB-1" source="LpadgL2TCFRJ_Je0_eDT-523" target="LpadgL2TCFRJ_Je0_eDT-539">
          <mxGeometry relative="1" as="geometry" />
        </mxCell>
        <mxCell id="LpadgL2TCFRJ_Je0_eDT-523" value="&lt;div style=&quot;&quot;&gt;&amp;nbsp; &amp;nbsp;X&lt;/div&gt;" style="rounded=0;whiteSpace=wrap;html=1;fillColor=#FFFBF2;align=center;shadow=1;strokeWidth=1;" vertex="1" parent="h79H_1wQwdtYAH2f0OgB-1">
          <mxGeometry x="476" y="388" width="38" height="30" as="geometry" />
        </mxCell>
        <mxCell id="LpadgL2TCFRJ_Je0_eDT-524" style="edgeStyle=orthogonalEdgeStyle;rounded=0;orthogonalLoop=1;jettySize=auto;html=1;exitX=0.25;exitY=0;exitDx=0;exitDy=0;entryX=0.25;entryY=1;entryDx=0;entryDy=0;endArrow=none;endFill=0;strokeColor=default;" edge="1" parent="h79H_1wQwdtYAH2f0OgB-1" source="LpadgL2TCFRJ_Je0_eDT-523" target="LpadgL2TCFRJ_Je0_eDT-523">
          <mxGeometry relative="1" as="geometry">
            <Array as="points">
              <mxPoint x="485" y="388" />
              <mxPoint x="485" y="418" />
            </Array>
          </mxGeometry>
        </mxCell>
        <mxCell id="LpadgL2TCFRJ_Je0_eDT-533" value="J2" style="text;html=1;strokeColor=none;fillColor=none;align=center;verticalAlign=middle;whiteSpace=wrap;rounded=0;" vertex="1" parent="h79H_1wQwdtYAH2f0OgB-1">
          <mxGeometry x="1128.0000000000002" y="135" width="25" height="21.5" as="geometry" />
        </mxCell>
        <mxCell id="LpadgL2TCFRJ_Je0_eDT-534" value="J4" style="text;html=1;strokeColor=none;fillColor=none;align=center;verticalAlign=middle;whiteSpace=wrap;rounded=0;" vertex="1" parent="h79H_1wQwdtYAH2f0OgB-1">
          <mxGeometry x="1197.0000000000002" y="135" width="25" height="21.5" as="geometry" />
        </mxCell>
        <mxCell id="LpadgL2TCFRJ_Je0_eDT-535" value="J5" style="text;html=1;strokeColor=none;fillColor=none;align=center;verticalAlign=middle;whiteSpace=wrap;rounded=0;" vertex="1" parent="h79H_1wQwdtYAH2f0OgB-1">
          <mxGeometry x="850.0000000000002" y="423.5" width="25" height="21.5" as="geometry" />
        </mxCell>
        <mxCell id="LpadgL2TCFRJ_Je0_eDT-536" value="J7" style="text;html=1;strokeColor=none;fillColor=none;align=center;verticalAlign=middle;whiteSpace=wrap;rounded=0;" vertex="1" parent="h79H_1wQwdtYAH2f0OgB-1">
          <mxGeometry x="915.0000000000002" y="423.5" width="25" height="21.5" as="geometry" />
        </mxCell>
        <mxCell id="LpadgL2TCFRJ_Je0_eDT-537" value="J6" style="text;html=1;strokeColor=none;fillColor=none;align=center;verticalAlign=middle;whiteSpace=wrap;rounded=0;" vertex="1" parent="h79H_1wQwdtYAH2f0OgB-1">
          <mxGeometry x="558.5000000000002" y="423.5" width="25" height="21.5" as="geometry" />
        </mxCell>
        <mxCell id="LpadgL2TCFRJ_Je0_eDT-538" value="J8" style="text;html=1;strokeColor=none;fillColor=none;align=center;verticalAlign=middle;whiteSpace=wrap;rounded=0;" vertex="1" parent="h79H_1wQwdtYAH2f0OgB-1">
          <mxGeometry x="482.5000000000002" y="423.5" width="25" height="21.5" as="geometry" />
        </mxCell>
        <mxCell id="LpadgL2TCFRJ_Je0_eDT-539" value="&lt;br&gt;" style="rounded=0;whiteSpace=wrap;html=1;fillColor=#fffbf2;shadow=1;" vertex="1" parent="h79H_1wQwdtYAH2f0OgB-1">
          <mxGeometry x="265.5" y="366" width="153" height="74" as="geometry" />
        </mxCell>
        <mxCell id="LpadgL2TCFRJ_Je0_eDT-540" value="" style="endArrow=none;html=1;rounded=0;exitX=0;exitY=0.75;exitDx=0;exitDy=0;entryX=1;entryY=0.75;entryDx=0;entryDy=0;" edge="1" parent="h79H_1wQwdtYAH2f0OgB-1">
          <mxGeometry width="50" height="50" relative="1" as="geometry">
            <mxPoint x="265.5" y="411" as="sourcePoint" />
            <mxPoint x="418.5" y="411" as="targetPoint" />
          </mxGeometry>
        </mxCell>
        <mxCell id="LpadgL2TCFRJ_Je0_eDT-541" value="Перейти к поиску вакансии" style="text;html=1;strokeColor=none;fillColor=none;align=center;verticalAlign=middle;whiteSpace=wrap;rounded=0;" vertex="1" parent="h79H_1wQwdtYAH2f0OgB-1">
          <mxGeometry x="288.5" y="372" width="106" height="30" as="geometry" />
        </mxCell>
        <mxCell id="LpadgL2TCFRJ_Je0_eDT-542" value="1.1.9" style="text;html=1;strokeColor=none;fillColor=none;align=left;verticalAlign=middle;whiteSpace=wrap;rounded=0;" vertex="1" parent="h79H_1wQwdtYAH2f0OgB-1">
          <mxGeometry x="271.5" y="415" width="44" height="23" as="geometry" />
        </mxCell>
        <mxCell id="LpadgL2TCFRJ_Je0_eDT-543" value="" style="endArrow=none;html=1;rounded=0;exitX=0.5;exitY=1;exitDx=0;exitDy=0;" edge="1" parent="h79H_1wQwdtYAH2f0OgB-1" source="LpadgL2TCFRJ_Je0_eDT-539">
          <mxGeometry width="50" height="50" relative="1" as="geometry">
            <mxPoint x="341.71000000000004" y="439" as="sourcePoint" />
            <mxPoint x="342.21000000000004" y="411" as="targetPoint" />
          </mxGeometry>
        </mxCell>
        <mxCell id="-nZZ7dTWgO3nxNM9ijlj-1" value="" style="swimlane;startSize=0;" parent="1" vertex="1">
          <mxGeometry x="-1670" y="-272" width="930" height="663" as="geometry">
            <mxRectangle x="-1670" y="-272" width="50" height="44" as="alternateBounds" />
          </mxGeometry>
        </mxCell>
        <mxCell id="-nZZ7dTWgO3nxNM9ijlj-3" value="" style="endArrow=none;html=1;rounded=0;exitX=0.001;exitY=0.896;exitDx=0;exitDy=0;entryX=1.002;entryY=0.898;entryDx=0;entryDy=0;exitPerimeter=0;entryPerimeter=0;" parent="-nZZ7dTWgO3nxNM9ijlj-1" edge="1">
          <mxGeometry width="50" height="50" relative="1" as="geometry">
            <mxPoint y="594" as="sourcePoint" />
            <mxPoint x="931" y="596" as="targetPoint" />
          </mxGeometry>
        </mxCell>
        <mxCell id="-nZZ7dTWgO3nxNM9ijlj-6" style="edgeStyle=orthogonalEdgeStyle;rounded=0;orthogonalLoop=1;jettySize=auto;html=1;endArrow=none;endFill=0;" parent="-nZZ7dTWgO3nxNM9ijlj-1" edge="1">
          <mxGeometry relative="1" as="geometry">
            <mxPoint x="120" y="662" as="targetPoint" />
            <mxPoint x="120" y="594" as="sourcePoint" />
          </mxGeometry>
        </mxCell>
        <mxCell id="-nZZ7dTWgO3nxNM9ijlj-7" style="edgeStyle=orthogonalEdgeStyle;rounded=0;orthogonalLoop=1;jettySize=auto;html=1;endArrow=none;endFill=0;" parent="-nZZ7dTWgO3nxNM9ijlj-1" edge="1">
          <mxGeometry relative="1" as="geometry">
            <mxPoint x="665" y="663" as="targetPoint" />
            <mxPoint x="665" y="595" as="sourcePoint" />
          </mxGeometry>
        </mxCell>
        <mxCell id="-nZZ7dTWgO3nxNM9ijlj-8" value="NODE:" style="text;html=1;strokeColor=none;fillColor=none;align=center;verticalAlign=middle;whiteSpace=wrap;rounded=0;" parent="-nZZ7dTWgO3nxNM9ijlj-1" vertex="1">
          <mxGeometry y="591" width="44" height="30" as="geometry" />
        </mxCell>
        <mxCell id="-nZZ7dTWgO3nxNM9ijlj-9" value="TITILE:" style="text;html=1;strokeColor=none;fillColor=none;align=center;verticalAlign=middle;whiteSpace=wrap;rounded=0;" parent="-nZZ7dTWgO3nxNM9ijlj-1" vertex="1">
          <mxGeometry x="120" y="591" width="44" height="30" as="geometry" />
        </mxCell>
        <mxCell id="-nZZ7dTWgO3nxNM9ijlj-10" value="NUMBER:" style="text;html=1;strokeColor=none;fillColor=none;align=center;verticalAlign=middle;whiteSpace=wrap;rounded=0;" parent="-nZZ7dTWgO3nxNM9ijlj-1" vertex="1">
          <mxGeometry x="663" y="591" width="67" height="30" as="geometry" />
        </mxCell>
        <mxCell id="-nZZ7dTWgO3nxNM9ijlj-18" value="А-0" style="text;html=1;strokeColor=none;fillColor=none;align=center;verticalAlign=middle;whiteSpace=wrap;rounded=0;fontSize=13;" parent="-nZZ7dTWgO3nxNM9ijlj-1" vertex="1">
          <mxGeometry x="49" y="617" width="23" height="22" as="geometry" />
        </mxCell>
        <mxCell id="-nZZ7dTWgO3nxNM9ijlj-19" value="ФУНКЦИОНИРОВАНИЕ ПОРТАЛА СО СТОРОНЫ СОИСКАТЕЛЯ" style="text;html=1;strokeColor=none;fillColor=none;align=center;verticalAlign=middle;whiteSpace=wrap;rounded=0;fontSize=13;" parent="-nZZ7dTWgO3nxNM9ijlj-1" vertex="1">
          <mxGeometry x="207" y="617" width="406" height="22" as="geometry" />
        </mxCell>
        <mxCell id="-nZZ7dTWgO3nxNM9ijlj-20" value="Цель: моделирование процесса &lt;br&gt;функционирования портала со стороны соискателя" style="text;html=1;strokeColor=none;fillColor=none;align=left;verticalAlign=middle;whiteSpace=wrap;rounded=0;" parent="-nZZ7dTWgO3nxNM9ijlj-1" vertex="1">
          <mxGeometry x="14" y="518" width="294" height="30" as="geometry" />
        </mxCell>
        <mxCell id="-nZZ7dTWgO3nxNM9ijlj-21" value="Точка зрения: разработчик" style="text;html=1;strokeColor=none;fillColor=none;align=left;verticalAlign=middle;whiteSpace=wrap;rounded=0;" parent="-nZZ7dTWgO3nxNM9ijlj-1" vertex="1">
          <mxGeometry x="14" y="548" width="176" height="30" as="geometry" />
        </mxCell>
        <mxCell id="-nZZ7dTWgO3nxNM9ijlj-34" style="edgeStyle=orthogonalEdgeStyle;rounded=0;orthogonalLoop=1;jettySize=auto;html=1;exitX=1;exitY=0.25;exitDx=0;exitDy=0;entryX=0;entryY=0.25;entryDx=0;entryDy=0;fontSize=11;" parent="-nZZ7dTWgO3nxNM9ijlj-1" edge="1">
          <mxGeometry relative="1" as="geometry">
            <mxPoint x="751" y="184.1700000000001" as="targetPoint" />
            <mxPoint x="603" y="184.17" as="sourcePoint" />
          </mxGeometry>
        </mxCell>
        <mxCell id="-nZZ7dTWgO3nxNM9ijlj-35" style="edgeStyle=orthogonalEdgeStyle;rounded=0;orthogonalLoop=1;jettySize=auto;html=1;exitX=1;exitY=0.75;exitDx=0;exitDy=0;fontSize=11;" parent="-nZZ7dTWgO3nxNM9ijlj-1" edge="1">
          <mxGeometry relative="1" as="geometry">
            <mxPoint x="750.3333333333335" y="240.08666666666673" as="targetPoint" />
            <mxPoint x="603" y="240.17" as="sourcePoint" />
          </mxGeometry>
        </mxCell>
        <mxCell id="-nZZ7dTWgO3nxNM9ijlj-63" value="Обновленная статистика&lt;br style=&quot;font-size: 11px;&quot;&gt;&lt;div style=&quot;font-size: 11px;&quot;&gt;трудоустройства&lt;/div&gt;" style="edgeLabel;html=1;align=right;verticalAlign=middle;resizable=0;points=[];labelBackgroundColor=none;fontSize=11;" parent="-nZZ7dTWgO3nxNM9ijlj-35" vertex="1" connectable="0">
          <mxGeometry x="-0.1859" relative="1" as="geometry">
            <mxPoint x="109" y="-24" as="offset" />
          </mxGeometry>
        </mxCell>
        <mxCell id="-nZZ7dTWgO3nxNM9ijlj-36" value="&lt;font style=&quot;font-size: 19px;&quot;&gt;Функционирование портала &lt;br style=&quot;&quot;&gt;со стороны соискателя&lt;/font&gt;" style="rounded=0;whiteSpace=wrap;html=1;shadow=1;fillColor=#FFFBF2;fontSize=11;glass=0;" parent="-nZZ7dTWgO3nxNM9ijlj-1" vertex="1">
          <mxGeometry x="289" y="155.5" width="314" height="170" as="geometry" />
        </mxCell>
        <mxCell id="-nZZ7dTWgO3nxNM9ijlj-39" style="edgeStyle=orthogonalEdgeStyle;rounded=0;orthogonalLoop=1;jettySize=auto;html=1;entryX=0.25;entryY=1;entryDx=0;entryDy=0;fontSize=13;" parent="-nZZ7dTWgO3nxNM9ijlj-1" edge="1">
          <mxGeometry relative="1" as="geometry">
            <mxPoint x="397" y="423.5" as="sourcePoint" />
            <mxPoint x="397.0000000000002" y="325.5" as="targetPoint" />
          </mxGeometry>
        </mxCell>
        <mxCell id="-nZZ7dTWgO3nxNM9ijlj-40" style="edgeStyle=orthogonalEdgeStyle;rounded=0;orthogonalLoop=1;jettySize=auto;html=1;exitX=0.75;exitY=0;exitDx=0;exitDy=0;entryX=0.75;entryY=1;entryDx=0;entryDy=0;fontSize=13;" parent="-nZZ7dTWgO3nxNM9ijlj-1" edge="1">
          <mxGeometry relative="1" as="geometry">
            <mxPoint x="490" y="427.5" as="sourcePoint" />
            <mxPoint x="490" y="325.5" as="targetPoint" />
          </mxGeometry>
        </mxCell>
        <mxCell id="-nZZ7dTWgO3nxNM9ijlj-42" value="&amp;nbsp;0" style="text;html=1;strokeColor=none;fillColor=none;align=center;verticalAlign=middle;whiteSpace=wrap;rounded=0;fontSize=11;" parent="-nZZ7dTWgO3nxNM9ijlj-1" vertex="1">
          <mxGeometry x="575" y="301" width="28" height="22" as="geometry" />
        </mxCell>
        <mxCell id="-nZZ7dTWgO3nxNM9ijlj-43" value="&lt;div style=&quot;font-size: 11px;&quot;&gt;&lt;span style=&quot;font-size: 11px; background-color: initial;&quot;&gt;Отсутствие потребности&lt;/span&gt;&lt;/div&gt;&lt;span style=&quot;font-size: 11px;&quot;&gt;в трудоустройстве&lt;br style=&quot;font-size: 11px;&quot;&gt;&lt;/span&gt;" style="text;html=1;strokeColor=none;fillColor=none;align=right;verticalAlign=middle;whiteSpace=wrap;rounded=0;fontSize=11;" parent="-nZZ7dTWgO3nxNM9ijlj-1" vertex="1">
          <mxGeometry x="619" y="143" width="155" height="33" as="geometry" />
        </mxCell>
        <mxCell id="-nZZ7dTWgO3nxNM9ijlj-46" value="Устройство" style="text;html=1;strokeColor=none;fillColor=none;align=left;verticalAlign=middle;whiteSpace=wrap;rounded=0;" parent="-nZZ7dTWgO3nxNM9ijlj-1" vertex="1">
          <mxGeometry x="496" y="390.5" width="79" height="30" as="geometry" />
        </mxCell>
        <mxCell id="-nZZ7dTWgO3nxNM9ijlj-47" value="Соискатель" style="text;html=1;strokeColor=none;fillColor=none;align=left;verticalAlign=middle;whiteSpace=wrap;rounded=0;" parent="-nZZ7dTWgO3nxNM9ijlj-1" vertex="1">
          <mxGeometry x="402" y="390.5" width="60" height="30" as="geometry" />
        </mxCell>
        <mxCell id="-nZZ7dTWgO3nxNM9ijlj-52" style="edgeStyle=orthogonalEdgeStyle;rounded=0;orthogonalLoop=1;jettySize=auto;html=1;entryX=0;entryY=0.5;entryDx=0;entryDy=0;fontSize=11;spacing=1;" parent="-nZZ7dTWgO3nxNM9ijlj-1" edge="1">
          <mxGeometry relative="1" as="geometry">
            <mxPoint x="137" y="257.76" as="sourcePoint" />
            <mxPoint x="289" y="257.76" as="targetPoint" />
            <Array as="points">
              <mxPoint x="202" y="258.26" />
              <mxPoint x="202" y="258.26" />
            </Array>
          </mxGeometry>
        </mxCell>
        <mxCell id="-nZZ7dTWgO3nxNM9ijlj-53" value="&lt;font style=&quot;font-size: 11px;&quot;&gt;Потребности соскателя&lt;/font&gt;" style="text;html=1;strokeColor=none;fillColor=none;align=left;verticalAlign=middle;whiteSpace=wrap;rounded=0;fontSize=11;" parent="-nZZ7dTWgO3nxNM9ijlj-1" vertex="1">
          <mxGeometry x="137" y="231" width="141" height="23" as="geometry" />
        </mxCell>
        <mxCell id="-nZZ7dTWgO3nxNM9ijlj-54" style="edgeStyle=orthogonalEdgeStyle;rounded=0;orthogonalLoop=1;jettySize=auto;html=1;entryX=0;entryY=0.5;entryDx=0;entryDy=0;fontSize=11;spacing=1;" parent="-nZZ7dTWgO3nxNM9ijlj-1" edge="1">
          <mxGeometry relative="1" as="geometry">
            <mxPoint x="137" y="192.01" as="sourcePoint" />
            <mxPoint x="289" y="192.01" as="targetPoint" />
            <Array as="points">
              <mxPoint x="202" y="192.51" />
              <mxPoint x="202" y="192.51" />
            </Array>
          </mxGeometry>
        </mxCell>
        <mxCell id="-nZZ7dTWgO3nxNM9ijlj-55" value="&lt;font style=&quot;font-size: 11px;&quot;&gt;Логин и пароль&lt;/font&gt;" style="text;html=1;strokeColor=none;fillColor=none;align=left;verticalAlign=middle;whiteSpace=wrap;rounded=0;fontSize=11;" parent="-nZZ7dTWgO3nxNM9ijlj-1" vertex="1">
          <mxGeometry x="137" y="167" width="110" height="23" as="geometry" />
        </mxCell>
        <mxCell id="-nZZ7dTWgO3nxNM9ijlj-56" style="edgeStyle=orthogonalEdgeStyle;rounded=0;orthogonalLoop=1;jettySize=auto;html=1;exitX=0.75;exitY=1;exitDx=0;exitDy=0;entryX=0.75;entryY=0;entryDx=0;entryDy=0;fontSize=11;" parent="-nZZ7dTWgO3nxNM9ijlj-1" edge="1">
          <mxGeometry relative="1" as="geometry">
            <mxPoint x="397.02" y="53.5" as="sourcePoint" />
            <mxPoint x="397.02" y="155.5" as="targetPoint" />
            <Array as="points">
              <mxPoint x="396.52" y="101.5" />
              <mxPoint x="396.52" y="101.5" />
            </Array>
          </mxGeometry>
        </mxCell>
        <mxCell id="-nZZ7dTWgO3nxNM9ijlj-57" value="Федеральные законы" style="text;html=1;strokeColor=none;fillColor=none;align=left;verticalAlign=middle;whiteSpace=wrap;rounded=0;fontSize=11;" parent="-nZZ7dTWgO3nxNM9ijlj-1" vertex="1">
          <mxGeometry x="401" y="44" width="77.5" height="65" as="geometry" />
        </mxCell>
        <mxCell id="-nZZ7dTWgO3nxNM9ijlj-58" style="edgeStyle=orthogonalEdgeStyle;rounded=0;orthogonalLoop=1;jettySize=auto;html=1;exitX=0.75;exitY=1;exitDx=0;exitDy=0;entryX=0.75;entryY=0;entryDx=0;entryDy=0;fontSize=11;" parent="-nZZ7dTWgO3nxNM9ijlj-1" edge="1">
          <mxGeometry relative="1" as="geometry">
            <mxPoint x="494.52" y="53.5" as="sourcePoint" />
            <mxPoint x="494.52" y="155.5" as="targetPoint" />
            <Array as="points">
              <mxPoint x="494.02" y="101.5" />
              <mxPoint x="494.02" y="101.5" />
            </Array>
          </mxGeometry>
        </mxCell>
        <mxCell id="-nZZ7dTWgO3nxNM9ijlj-59" value="Гражданский&lt;br style=&quot;font-size: 11px;&quot;&gt;кодекс" style="text;html=1;strokeColor=none;fillColor=none;align=left;verticalAlign=middle;whiteSpace=wrap;rounded=0;fontSize=11;" parent="-nZZ7dTWgO3nxNM9ijlj-1" vertex="1">
          <mxGeometry x="498.5" y="44" width="87" height="65" as="geometry" />
        </mxCell>
        <mxCell id="-nZZ7dTWgO3nxNM9ijlj-65" style="edgeStyle=orthogonalEdgeStyle;rounded=0;orthogonalLoop=1;jettySize=auto;html=1;exitX=1;exitY=0.75;exitDx=0;exitDy=0;fontSize=11;" parent="-nZZ7dTWgO3nxNM9ijlj-1" edge="1">
          <mxGeometry relative="1" as="geometry">
            <mxPoint x="750.3333333333335" y="295.9966666666667" as="targetPoint" />
            <mxPoint x="603" y="296.08" as="sourcePoint" />
          </mxGeometry>
        </mxCell>
        <mxCell id="-nZZ7dTWgO3nxNM9ijlj-66" value="Трудоустроенный&lt;br&gt;специалист" style="edgeLabel;html=1;align=right;verticalAlign=middle;resizable=0;points=[];labelBackgroundColor=none;fontSize=11;" parent="-nZZ7dTWgO3nxNM9ijlj-65" vertex="1" connectable="0">
          <mxGeometry x="-0.1859" relative="1" as="geometry">
            <mxPoint x="109" y="-24" as="offset" />
          </mxGeometry>
        </mxCell>
        <mxCell id="-nZZ7dTWgO3nxNM9ijlj-67" style="edgeStyle=orthogonalEdgeStyle;rounded=0;orthogonalLoop=1;jettySize=auto;html=1;entryX=0;entryY=0.5;entryDx=0;entryDy=0;fontSize=11;spacing=1;" parent="-nZZ7dTWgO3nxNM9ijlj-1" edge="1">
          <mxGeometry relative="1" as="geometry">
            <mxPoint x="137" y="300.31" as="sourcePoint" />
            <mxPoint x="289" y="300.31" as="targetPoint" />
            <Array as="points">
              <mxPoint x="202" y="300.81" />
              <mxPoint x="202" y="300.81" />
            </Array>
          </mxGeometry>
        </mxCell>
        <mxCell id="-nZZ7dTWgO3nxNM9ijlj-68" value="Желание&lt;br&gt;трудоустроиться" style="text;html=1;strokeColor=none;fillColor=none;align=left;verticalAlign=middle;whiteSpace=wrap;rounded=0;fontSize=11;" parent="-nZZ7dTWgO3nxNM9ijlj-1" vertex="1">
          <mxGeometry x="137" y="268.55" width="141" height="23" as="geometry" />
        </mxCell>
        <mxCell id="-nZZ7dTWgO3nxNM9ijlj-74" style="edgeStyle=orthogonalEdgeStyle;rounded=0;orthogonalLoop=1;jettySize=auto;html=1;entryX=0;entryY=0.5;entryDx=0;entryDy=0;fontSize=11;spacing=1;" parent="-nZZ7dTWgO3nxNM9ijlj-1" edge="1">
          <mxGeometry relative="1" as="geometry">
            <mxPoint x="137" y="225.76" as="sourcePoint" />
            <mxPoint x="289" y="225.76" as="targetPoint" />
            <Array as="points">
              <mxPoint x="202" y="226.26" />
              <mxPoint x="202" y="226.26" />
            </Array>
          </mxGeometry>
        </mxCell>
        <mxCell id="sn503U8lY3atArULx9LJ-33" value="&lt;font style=&quot;font-size: 11px;&quot;&gt;Личные данные соискателя&lt;/font&gt;" style="text;html=1;strokeColor=none;fillColor=none;align=left;verticalAlign=middle;whiteSpace=wrap;rounded=0;fontSize=11;" parent="-nZZ7dTWgO3nxNM9ijlj-1" vertex="1">
          <mxGeometry x="137" y="199" width="146" height="23" as="geometry" />
        </mxCell>
        <mxCell id="LpadgL2TCFRJ_Je0_eDT-63" value="" style="swimlane;startSize=0;" vertex="1" parent="1">
          <mxGeometry x="-1815" y="464" width="1300" height="663" as="geometry">
            <mxRectangle x="19" y="-62" width="50" height="44" as="alternateBounds" />
          </mxGeometry>
        </mxCell>
        <mxCell id="LpadgL2TCFRJ_Je0_eDT-64" value="" style="endArrow=none;html=1;rounded=0;exitX=0.001;exitY=0.896;exitDx=0;exitDy=0;entryX=1.002;entryY=0.898;entryDx=0;entryDy=0;exitPerimeter=0;entryPerimeter=0;" edge="1" parent="LpadgL2TCFRJ_Je0_eDT-63">
          <mxGeometry width="50" height="50" relative="1" as="geometry">
            <mxPoint y="594" as="sourcePoint" />
            <mxPoint x="931" y="596" as="targetPoint" />
          </mxGeometry>
        </mxCell>
        <mxCell id="LpadgL2TCFRJ_Je0_eDT-65" style="edgeStyle=orthogonalEdgeStyle;rounded=0;orthogonalLoop=1;jettySize=auto;html=1;endArrow=none;endFill=0;" edge="1" parent="LpadgL2TCFRJ_Je0_eDT-63">
          <mxGeometry relative="1" as="geometry">
            <mxPoint x="120" y="662" as="targetPoint" />
            <mxPoint x="120" y="594" as="sourcePoint" />
          </mxGeometry>
        </mxCell>
        <mxCell id="LpadgL2TCFRJ_Je0_eDT-66" style="edgeStyle=orthogonalEdgeStyle;rounded=0;orthogonalLoop=1;jettySize=auto;html=1;endArrow=none;endFill=0;" edge="1" parent="LpadgL2TCFRJ_Je0_eDT-63">
          <mxGeometry relative="1" as="geometry">
            <mxPoint x="665" y="663" as="targetPoint" />
            <mxPoint x="665" y="595" as="sourcePoint" />
          </mxGeometry>
        </mxCell>
        <mxCell id="LpadgL2TCFRJ_Je0_eDT-67" value="NODE:" style="text;html=1;strokeColor=none;fillColor=none;align=center;verticalAlign=middle;whiteSpace=wrap;rounded=0;" vertex="1" parent="LpadgL2TCFRJ_Je0_eDT-63">
          <mxGeometry y="591" width="44" height="30" as="geometry" />
        </mxCell>
        <mxCell id="LpadgL2TCFRJ_Je0_eDT-68" value="TITILE:" style="text;html=1;strokeColor=none;fillColor=none;align=center;verticalAlign=middle;whiteSpace=wrap;rounded=0;" vertex="1" parent="LpadgL2TCFRJ_Je0_eDT-63">
          <mxGeometry x="120" y="591" width="44" height="30" as="geometry" />
        </mxCell>
        <mxCell id="LpadgL2TCFRJ_Je0_eDT-69" value="NUMBER:" style="text;html=1;strokeColor=none;fillColor=none;align=center;verticalAlign=middle;whiteSpace=wrap;rounded=0;" vertex="1" parent="LpadgL2TCFRJ_Je0_eDT-63">
          <mxGeometry x="663" y="591" width="67" height="30" as="geometry" />
        </mxCell>
        <mxCell id="LpadgL2TCFRJ_Je0_eDT-70" value="А0" style="text;html=1;strokeColor=none;fillColor=none;align=center;verticalAlign=middle;whiteSpace=wrap;rounded=0;fontSize=13;" vertex="1" parent="LpadgL2TCFRJ_Je0_eDT-63">
          <mxGeometry x="49" y="617" width="23" height="22" as="geometry" />
        </mxCell>
        <mxCell id="LpadgL2TCFRJ_Je0_eDT-71" value="ФУНКЦИОНИРОВАНИЕ ПОРТАЛА СО СТОРОНЫ СОИСКАТЕЛЯ" style="text;html=1;strokeColor=none;fillColor=none;align=center;verticalAlign=middle;whiteSpace=wrap;rounded=0;fontSize=13;" vertex="1" parent="LpadgL2TCFRJ_Je0_eDT-63">
          <mxGeometry x="211" y="621" width="404" height="22" as="geometry" />
        </mxCell>
        <mxCell id="LpadgL2TCFRJ_Je0_eDT-72" value="Авторизация в&lt;br style=&quot;font-size: 11px;&quot;&gt;&amp;nbsp;системе" style="rounded=0;whiteSpace=wrap;html=1;fillColor=#FFFBF2;fontSize=11;shadow=1;align=center;" vertex="1" parent="LpadgL2TCFRJ_Je0_eDT-63">
          <mxGeometry x="237" y="102.83" width="148" height="61.17" as="geometry" />
        </mxCell>
        <mxCell id="LpadgL2TCFRJ_Je0_eDT-73" value="&lt;br style=&quot;font-size: 11px;&quot;&gt;&lt;br style=&quot;font-size: 11px;&quot;&gt;Поиск необходимой вакансии" style="rounded=0;whiteSpace=wrap;html=1;fillColor=#FFFBF2;fontSize=11;shadow=1;verticalAlign=top;labelBackgroundColor=none;align=center;" vertex="1" parent="LpadgL2TCFRJ_Je0_eDT-63">
          <mxGeometry x="451" y="186.82999999999998" width="116" height="91" as="geometry" />
        </mxCell>
        <mxCell id="LpadgL2TCFRJ_Je0_eDT-74" style="edgeStyle=orthogonalEdgeStyle;rounded=1;orthogonalLoop=1;jettySize=auto;html=1;align=center;entryX=0;entryY=0.25;entryDx=0;entryDy=0;fontSize=11;" edge="1" parent="LpadgL2TCFRJ_Je0_eDT-63" source="LpadgL2TCFRJ_Je0_eDT-72" target="LpadgL2TCFRJ_Je0_eDT-73">
          <mxGeometry relative="1" as="geometry">
            <mxPoint x="448" y="200.82999999999998" as="targetPoint" />
          </mxGeometry>
        </mxCell>
        <mxCell id="LpadgL2TCFRJ_Je0_eDT-75" value="Резюме&amp;nbsp;&lt;br style=&quot;font-size: 11px;&quot;&gt;соискателя" style="edgeLabel;html=1;align=center;verticalAlign=middle;resizable=0;points=[];labelBackgroundColor=none;fontSize=11;" vertex="1" connectable="0" parent="LpadgL2TCFRJ_Je0_eDT-74">
          <mxGeometry x="-0.4021" y="-2" relative="1" as="geometry">
            <mxPoint x="23" y="-32" as="offset" />
          </mxGeometry>
        </mxCell>
        <mxCell id="LpadgL2TCFRJ_Je0_eDT-76" value="&lt;br&gt;Отклик на &lt;br style=&quot;font-size: 11px;&quot;&gt;вакансию" style="rounded=0;whiteSpace=wrap;html=1;fillColor=#FFFBF2;fontSize=11;shadow=1;align=center;verticalAlign=top;" vertex="1" parent="LpadgL2TCFRJ_Je0_eDT-63">
          <mxGeometry x="623" y="272.83" width="104" height="70.17" as="geometry" />
        </mxCell>
        <mxCell id="LpadgL2TCFRJ_Je0_eDT-77" style="edgeStyle=orthogonalEdgeStyle;rounded=1;orthogonalLoop=1;jettySize=auto;html=1;exitX=1;exitY=0.5;exitDx=0;exitDy=0;entryX=0;entryY=0.25;entryDx=0;entryDy=0;align=center;fontSize=11;" edge="1" parent="LpadgL2TCFRJ_Je0_eDT-63" source="LpadgL2TCFRJ_Je0_eDT-73" target="LpadgL2TCFRJ_Je0_eDT-76">
          <mxGeometry relative="1" as="geometry" />
        </mxCell>
        <mxCell id="LpadgL2TCFRJ_Je0_eDT-78" value="Вакансия" style="edgeLabel;html=1;align=center;verticalAlign=middle;resizable=0;points=[];labelBackgroundColor=none;fontSize=11;" vertex="1" connectable="0" parent="LpadgL2TCFRJ_Je0_eDT-77">
          <mxGeometry x="-0.3816" y="1" relative="1" as="geometry">
            <mxPoint x="12" y="-24" as="offset" />
          </mxGeometry>
        </mxCell>
        <mxCell id="LpadgL2TCFRJ_Je0_eDT-79" value="&lt;br&gt;&lt;br&gt;&lt;br&gt;&lt;br&gt;&lt;br&gt;Обработка отклика&lt;br&gt;&amp;nbsp;на вакансию" style="rounded=0;whiteSpace=wrap;html=1;fillColor=#FFFBF2;fontSize=11;shadow=1;verticalAlign=top;align=center;" vertex="1" parent="LpadgL2TCFRJ_Je0_eDT-63">
          <mxGeometry x="779" y="330.83" width="126" height="153" as="geometry" />
        </mxCell>
        <mxCell id="LpadgL2TCFRJ_Je0_eDT-80" style="edgeStyle=orthogonalEdgeStyle;rounded=1;orthogonalLoop=1;jettySize=auto;html=1;exitX=1;exitY=0.5;exitDx=0;exitDy=0;entryX=0;entryY=0.25;entryDx=0;entryDy=0;align=center;fontSize=11;" edge="1" parent="LpadgL2TCFRJ_Je0_eDT-63" source="LpadgL2TCFRJ_Je0_eDT-76" target="LpadgL2TCFRJ_Je0_eDT-79">
          <mxGeometry relative="1" as="geometry" />
        </mxCell>
        <mxCell id="LpadgL2TCFRJ_Je0_eDT-81" value="Отклик &lt;br&gt;на вакансию" style="edgeLabel;html=1;align=center;verticalAlign=middle;resizable=0;points=[];labelBackgroundColor=none;fontSize=11;" vertex="1" connectable="0" parent="LpadgL2TCFRJ_Je0_eDT-80">
          <mxGeometry x="-0.4271" y="3" relative="1" as="geometry">
            <mxPoint x="12" y="-37" as="offset" />
          </mxGeometry>
        </mxCell>
        <mxCell id="LpadgL2TCFRJ_Je0_eDT-82" value="1" style="text;html=1;strokeColor=none;fillColor=none;align=center;verticalAlign=middle;whiteSpace=wrap;rounded=0;fontSize=11;" vertex="1" parent="LpadgL2TCFRJ_Je0_eDT-63">
          <mxGeometry x="371" y="142.05999999999997" width="14" height="21.94" as="geometry" />
        </mxCell>
        <mxCell id="LpadgL2TCFRJ_Je0_eDT-83" value="2" style="text;html=1;strokeColor=none;fillColor=none;align=center;verticalAlign=middle;whiteSpace=wrap;rounded=0;fontSize=11;" vertex="1" parent="LpadgL2TCFRJ_Je0_eDT-63">
          <mxGeometry x="547" y="255.82999999999998" width="20" height="22" as="geometry" />
        </mxCell>
        <mxCell id="LpadgL2TCFRJ_Je0_eDT-84" value="3" style="text;html=1;strokeColor=none;fillColor=none;align=center;verticalAlign=middle;whiteSpace=wrap;rounded=0;fontSize=11;" vertex="1" parent="LpadgL2TCFRJ_Je0_eDT-63">
          <mxGeometry x="707" y="319.33" width="17" height="22" as="geometry" />
        </mxCell>
        <mxCell id="LpadgL2TCFRJ_Je0_eDT-85" style="edgeStyle=orthogonalEdgeStyle;rounded=0;orthogonalLoop=1;jettySize=auto;html=1;exitX=1;exitY=0.5;exitDx=0;exitDy=0;entryX=0;entryY=0.5;entryDx=0;entryDy=0;align=center;fontSize=11;" edge="1" parent="LpadgL2TCFRJ_Je0_eDT-63">
          <mxGeometry relative="1" as="geometry">
            <mxPoint x="81" y="264.83" as="sourcePoint" />
            <mxPoint x="451" y="265.33" as="targetPoint" />
            <Array as="points">
              <mxPoint x="352" y="265.83" />
              <mxPoint x="166" y="265.83" />
            </Array>
          </mxGeometry>
        </mxCell>
        <mxCell id="LpadgL2TCFRJ_Je0_eDT-86" style="edgeStyle=orthogonalEdgeStyle;rounded=0;orthogonalLoop=1;jettySize=auto;html=1;exitX=1;exitY=0.5;exitDx=0;exitDy=0;entryX=0;entryY=0.5;entryDx=0;entryDy=0;align=center;fontSize=11;" edge="1" parent="LpadgL2TCFRJ_Je0_eDT-63">
          <mxGeometry relative="1" as="geometry">
            <mxPoint x="81" y="237.82999999999998" as="sourcePoint" />
            <mxPoint x="451" y="238.32999999999998" as="targetPoint" />
            <Array as="points">
              <mxPoint x="352" y="238.82999999999998" />
              <mxPoint x="166" y="238.82999999999998" />
            </Array>
          </mxGeometry>
        </mxCell>
        <mxCell id="LpadgL2TCFRJ_Je0_eDT-87" style="edgeStyle=orthogonalEdgeStyle;rounded=0;orthogonalLoop=1;jettySize=auto;html=1;exitX=0.75;exitY=1;exitDx=0;exitDy=0;endArrow=none;endFill=0;startArrow=classic;startFill=1;align=center;fillColor=#f8cecc;strokeColor=#b85450;fontSize=11;" edge="1" parent="LpadgL2TCFRJ_Je0_eDT-63">
          <mxGeometry relative="1" as="geometry">
            <mxPoint x="270" y="575" as="targetPoint" />
            <mxPoint x="270.08" y="163.99999999999997" as="sourcePoint" />
          </mxGeometry>
        </mxCell>
        <mxCell id="LpadgL2TCFRJ_Je0_eDT-88" style="edgeStyle=orthogonalEdgeStyle;rounded=0;orthogonalLoop=1;jettySize=auto;html=1;exitX=0.75;exitY=1;exitDx=0;exitDy=0;endArrow=none;endFill=0;startArrow=classic;startFill=1;align=center;fillColor=#dae8fc;strokeColor=#6c8ebf;fontSize=11;" edge="1" parent="LpadgL2TCFRJ_Je0_eDT-63">
          <mxGeometry relative="1" as="geometry">
            <mxPoint x="347" y="575" as="targetPoint" />
            <mxPoint x="347.08" y="163.99999999999997" as="sourcePoint" />
          </mxGeometry>
        </mxCell>
        <mxCell id="LpadgL2TCFRJ_Je0_eDT-89" value="" style="endArrow=classic;html=1;rounded=1;entryX=0.5;entryY=1;entryDx=0;entryDy=0;strokeColor=none;fontSize=11;" edge="1" parent="LpadgL2TCFRJ_Je0_eDT-63" source="LpadgL2TCFRJ_Je0_eDT-109" target="LpadgL2TCFRJ_Je0_eDT-79">
          <mxGeometry width="50" height="50" relative="1" as="geometry">
            <mxPoint x="324" y="495.83000000000004" as="sourcePoint" />
            <mxPoint x="981" y="442.83" as="targetPoint" />
          </mxGeometry>
        </mxCell>
        <mxCell id="LpadgL2TCFRJ_Je0_eDT-90" style="edgeStyle=orthogonalEdgeStyle;rounded=0;orthogonalLoop=1;jettySize=auto;html=1;exitX=1;exitY=0.25;exitDx=0;exitDy=0;entryX=0;entryY=0.25;entryDx=0;entryDy=0;fontSize=11;" edge="1" parent="LpadgL2TCFRJ_Je0_eDT-63">
          <mxGeometry relative="1" as="geometry">
            <mxPoint x="1053" y="355.00000000000006" as="targetPoint" />
            <mxPoint x="905" y="354.99999999999994" as="sourcePoint" />
          </mxGeometry>
        </mxCell>
        <mxCell id="LpadgL2TCFRJ_Je0_eDT-91" style="edgeStyle=orthogonalEdgeStyle;rounded=0;orthogonalLoop=1;jettySize=auto;html=1;exitX=1;exitY=0.75;exitDx=0;exitDy=0;fontSize=11;" edge="1" parent="LpadgL2TCFRJ_Je0_eDT-63">
          <mxGeometry relative="1" as="geometry">
            <mxPoint x="1052.3333333333335" y="410.9166666666667" as="targetPoint" />
            <mxPoint x="905" y="410.99999999999994" as="sourcePoint" />
          </mxGeometry>
        </mxCell>
        <mxCell id="LpadgL2TCFRJ_Je0_eDT-92" value="Обновленная статистика&lt;br style=&quot;font-size: 11px;&quot;&gt;&lt;div style=&quot;font-size: 11px;&quot;&gt;трудоустройства&lt;/div&gt;" style="edgeLabel;html=1;align=right;verticalAlign=middle;resizable=0;points=[];labelBackgroundColor=none;fontSize=11;" vertex="1" connectable="0" parent="LpadgL2TCFRJ_Je0_eDT-91">
          <mxGeometry x="-0.1859" relative="1" as="geometry">
            <mxPoint x="109" y="-24" as="offset" />
          </mxGeometry>
        </mxCell>
        <mxCell id="LpadgL2TCFRJ_Je0_eDT-93" value="&lt;div style=&quot;font-size: 11px;&quot;&gt;&lt;span style=&quot;font-size: 11px; background-color: initial;&quot;&gt;Отсутствие потребности&lt;/span&gt;&lt;/div&gt;&lt;span style=&quot;font-size: 11px;&quot;&gt;в трудоустройстве&lt;br style=&quot;font-size: 11px;&quot;&gt;&lt;/span&gt;" style="text;html=1;strokeColor=none;fillColor=none;align=right;verticalAlign=middle;whiteSpace=wrap;rounded=0;fontSize=11;" vertex="1" parent="LpadgL2TCFRJ_Je0_eDT-63">
          <mxGeometry x="921" y="313.83" width="155" height="33" as="geometry" />
        </mxCell>
        <mxCell id="LpadgL2TCFRJ_Je0_eDT-94" style="edgeStyle=orthogonalEdgeStyle;rounded=0;orthogonalLoop=1;jettySize=auto;html=1;exitX=1;exitY=0.75;exitDx=0;exitDy=0;fontSize=11;" edge="1" parent="LpadgL2TCFRJ_Je0_eDT-63">
          <mxGeometry relative="1" as="geometry">
            <mxPoint x="1052.3333333333335" y="466.82666666666665" as="targetPoint" />
            <mxPoint x="905" y="466.9099999999999" as="sourcePoint" />
          </mxGeometry>
        </mxCell>
        <mxCell id="LpadgL2TCFRJ_Je0_eDT-95" value="Трудоустроенный&lt;br style=&quot;font-size: 11px;&quot;&gt;специалист" style="edgeLabel;html=1;align=right;verticalAlign=middle;resizable=0;points=[];labelBackgroundColor=none;fontSize=11;" vertex="1" connectable="0" parent="LpadgL2TCFRJ_Je0_eDT-94">
          <mxGeometry x="-0.1859" relative="1" as="geometry">
            <mxPoint x="109" y="-24" as="offset" />
          </mxGeometry>
        </mxCell>
        <mxCell id="LpadgL2TCFRJ_Je0_eDT-96" value="4" style="text;html=1;strokeColor=none;fillColor=none;align=center;verticalAlign=middle;whiteSpace=wrap;rounded=0;fontSize=11;" vertex="1" parent="LpadgL2TCFRJ_Je0_eDT-63">
          <mxGeometry x="888" y="458.83" width="17" height="22" as="geometry" />
        </mxCell>
        <mxCell id="LpadgL2TCFRJ_Je0_eDT-97" value="Федеральные законы" style="text;html=1;strokeColor=none;fillColor=none;align=left;verticalAlign=middle;whiteSpace=wrap;rounded=0;fontSize=11;" vertex="1" parent="LpadgL2TCFRJ_Je0_eDT-63">
          <mxGeometry x="267.99" y="14" width="59" height="31" as="geometry" />
        </mxCell>
        <mxCell id="LpadgL2TCFRJ_Je0_eDT-98" style="edgeStyle=orthogonalEdgeStyle;rounded=0;orthogonalLoop=1;jettySize=auto;html=1;entryX=0.75;entryY=0;entryDx=0;entryDy=0;fontSize=11;fillColor=#dae8fc;strokeColor=#6c8ebf;" edge="1" parent="LpadgL2TCFRJ_Je0_eDT-63">
          <mxGeometry relative="1" as="geometry">
            <mxPoint x="345.59999999999997" y="23" as="sourcePoint" />
            <mxPoint x="345.59999999999997" y="102.83" as="targetPoint" />
            <Array as="points">
              <mxPoint x="345.09999999999997" y="48.83" />
              <mxPoint x="345.09999999999997" y="48.83" />
            </Array>
          </mxGeometry>
        </mxCell>
        <mxCell id="LpadgL2TCFRJ_Je0_eDT-99" style="edgeStyle=orthogonalEdgeStyle;rounded=0;orthogonalLoop=1;jettySize=auto;html=1;entryX=0.75;entryY=0;entryDx=0;entryDy=0;fontSize=11;fillColor=#f8cecc;strokeColor=#b85450;" edge="1" parent="LpadgL2TCFRJ_Je0_eDT-63">
          <mxGeometry relative="1" as="geometry">
            <mxPoint x="265.0100000000001" y="23" as="sourcePoint" />
            <mxPoint x="265.0100000000001" y="102.83000000000004" as="targetPoint" />
            <Array as="points">
              <mxPoint x="264.5100000000001" y="48.83000000000004" />
              <mxPoint x="264.5100000000001" y="48.83000000000004" />
            </Array>
          </mxGeometry>
        </mxCell>
        <mxCell id="LpadgL2TCFRJ_Je0_eDT-100" value="Гражданский&lt;br&gt;кодекс" style="text;html=1;strokeColor=none;fillColor=none;align=left;verticalAlign=middle;whiteSpace=wrap;rounded=0;fontSize=11;" vertex="1" parent="LpadgL2TCFRJ_Je0_eDT-63">
          <mxGeometry x="348.58" y="14" width="77.5" height="31" as="geometry" />
        </mxCell>
        <mxCell id="LpadgL2TCFRJ_Je0_eDT-101" value="&lt;font style=&quot;font-size: 11px;&quot;&gt;Логин и пароль&lt;/font&gt;" style="text;html=1;strokeColor=none;fillColor=none;align=left;verticalAlign=middle;whiteSpace=wrap;rounded=0;fontSize=11;" vertex="1" parent="LpadgL2TCFRJ_Je0_eDT-63">
          <mxGeometry x="79" y="102.83" width="85" height="17" as="geometry" />
        </mxCell>
        <mxCell id="LpadgL2TCFRJ_Je0_eDT-102" style="edgeStyle=orthogonalEdgeStyle;rounded=0;orthogonalLoop=1;jettySize=auto;html=1;entryX=0;entryY=0.5;entryDx=0;entryDy=0;fontSize=11;spacing=1;" edge="1" parent="LpadgL2TCFRJ_Je0_eDT-63">
          <mxGeometry relative="1" as="geometry">
            <mxPoint x="80" y="151" as="sourcePoint" />
            <mxPoint x="237" y="150.84000000000003" as="targetPoint" />
            <Array as="points">
              <mxPoint x="150" y="151.34000000000003" />
              <mxPoint x="150" y="151.34000000000003" />
            </Array>
          </mxGeometry>
        </mxCell>
        <mxCell id="LpadgL2TCFRJ_Je0_eDT-103" value="&lt;font style=&quot;font-size: 11px;&quot;&gt;Личные данные соискателя&lt;/font&gt;" style="text;html=1;strokeColor=none;fillColor=none;align=left;verticalAlign=middle;whiteSpace=wrap;rounded=0;fontSize=11;" vertex="1" parent="LpadgL2TCFRJ_Je0_eDT-63">
          <mxGeometry x="79" y="131.29999999999998" width="145" height="15.11" as="geometry" />
        </mxCell>
        <mxCell id="LpadgL2TCFRJ_Je0_eDT-104" style="edgeStyle=orthogonalEdgeStyle;rounded=0;orthogonalLoop=1;jettySize=auto;html=1;entryX=0;entryY=0.5;entryDx=0;entryDy=0;fontSize=11;spacing=1;" edge="1" parent="LpadgL2TCFRJ_Je0_eDT-63">
          <mxGeometry relative="1" as="geometry">
            <mxPoint x="80" y="123.15999999999997" as="sourcePoint" />
            <mxPoint x="237" y="123" as="targetPoint" />
            <Array as="points">
              <mxPoint x="150" y="123.5" />
              <mxPoint x="150" y="123.5" />
            </Array>
          </mxGeometry>
        </mxCell>
        <mxCell id="LpadgL2TCFRJ_Je0_eDT-105" value="Потребности соскателя" style="text;html=1;strokeColor=none;fillColor=none;align=left;verticalAlign=middle;whiteSpace=wrap;rounded=0;fontSize=11;" vertex="1" parent="LpadgL2TCFRJ_Je0_eDT-63">
          <mxGeometry x="79" y="215" width="134" height="17" as="geometry" />
        </mxCell>
        <mxCell id="LpadgL2TCFRJ_Je0_eDT-106" value="Желание трудоустроиться" style="text;html=1;strokeColor=none;fillColor=none;align=left;verticalAlign=middle;whiteSpace=wrap;rounded=0;fontSize=11;" vertex="1" parent="LpadgL2TCFRJ_Je0_eDT-63">
          <mxGeometry x="79" y="243" width="174" height="17" as="geometry" />
        </mxCell>
        <mxCell id="LpadgL2TCFRJ_Je0_eDT-107" value="Соискатель" style="text;html=1;strokeColor=none;fillColor=none;align=left;verticalAlign=middle;whiteSpace=wrap;rounded=0;fontSize=11;" vertex="1" parent="LpadgL2TCFRJ_Je0_eDT-63">
          <mxGeometry x="275" y="557" width="59" height="31" as="geometry" />
        </mxCell>
        <mxCell id="LpadgL2TCFRJ_Je0_eDT-108" value="" style="endArrow=classic;html=1;rounded=1;entryX=0.5;entryY=1;entryDx=0;entryDy=0;strokeColor=none;fontSize=11;" edge="1" parent="LpadgL2TCFRJ_Je0_eDT-63" target="LpadgL2TCFRJ_Je0_eDT-109">
          <mxGeometry width="50" height="50" relative="1" as="geometry">
            <mxPoint x="-1301" y="1018.83" as="sourcePoint" />
            <mxPoint x="-783" y="1007" as="targetPoint" />
          </mxGeometry>
        </mxCell>
        <mxCell id="LpadgL2TCFRJ_Je0_eDT-109" value="Компьютер" style="text;html=1;strokeColor=none;fillColor=none;align=left;verticalAlign=middle;whiteSpace=wrap;rounded=0;fontSize=11;" vertex="1" parent="LpadgL2TCFRJ_Je0_eDT-63">
          <mxGeometry x="357.83" y="560" width="59" height="31" as="geometry" />
        </mxCell>
        <mxCell id="LpadgL2TCFRJ_Je0_eDT-110" style="edgeStyle=orthogonalEdgeStyle;rounded=0;orthogonalLoop=1;jettySize=auto;html=1;exitX=0.25;exitY=1;exitDx=0;exitDy=0;endArrow=none;endFill=0;startArrow=classic;startFill=1;align=center;fillColor=#f8cecc;strokeColor=#b85450;fontSize=11;" edge="1" parent="LpadgL2TCFRJ_Je0_eDT-63" source="LpadgL2TCFRJ_Je0_eDT-73">
          <mxGeometry relative="1" as="geometry">
            <mxPoint x="270" y="525" as="targetPoint" />
            <mxPoint x="489.0799999999999" y="295" as="sourcePoint" />
            <Array as="points">
              <mxPoint x="480" y="542" />
              <mxPoint x="270" y="542" />
            </Array>
          </mxGeometry>
        </mxCell>
        <mxCell id="LpadgL2TCFRJ_Je0_eDT-111" style="edgeStyle=orthogonalEdgeStyle;rounded=0;orthogonalLoop=1;jettySize=auto;html=1;exitX=0.75;exitY=1;exitDx=0;exitDy=0;endArrow=none;endFill=0;startArrow=classic;startFill=1;align=center;fillColor=#dae8fc;strokeColor=#6c8ebf;fontSize=11;" edge="1" parent="LpadgL2TCFRJ_Je0_eDT-63" source="LpadgL2TCFRJ_Je0_eDT-73">
          <mxGeometry relative="1" as="geometry">
            <mxPoint x="347" y="560" as="targetPoint" />
            <mxPoint x="530.0799999999999" y="287" as="sourcePoint" />
            <Array as="points">
              <mxPoint x="538" y="560" />
            </Array>
          </mxGeometry>
        </mxCell>
        <mxCell id="LpadgL2TCFRJ_Je0_eDT-112" style="edgeStyle=orthogonalEdgeStyle;rounded=0;orthogonalLoop=1;jettySize=auto;html=1;exitX=0.25;exitY=1;exitDx=0;exitDy=0;endArrow=none;endFill=0;startArrow=classic;startFill=1;align=center;fillColor=#f8cecc;strokeColor=#b85450;fontSize=11;" edge="1" parent="LpadgL2TCFRJ_Je0_eDT-63" source="LpadgL2TCFRJ_Je0_eDT-76">
          <mxGeometry relative="1" as="geometry">
            <mxPoint x="270" y="542" as="targetPoint" />
            <mxPoint x="656.03" y="346.83000000000004" as="sourcePoint" />
            <Array as="points">
              <mxPoint x="649" y="542" />
            </Array>
          </mxGeometry>
        </mxCell>
        <mxCell id="LpadgL2TCFRJ_Je0_eDT-113" style="edgeStyle=orthogonalEdgeStyle;rounded=0;orthogonalLoop=1;jettySize=auto;html=1;endArrow=none;endFill=0;startArrow=classic;startFill=1;align=center;fillColor=#dae8fc;strokeColor=#6c8ebf;fontSize=11;exitX=0.798;exitY=1.01;exitDx=0;exitDy=0;exitPerimeter=0;" edge="1" parent="LpadgL2TCFRJ_Je0_eDT-63" source="LpadgL2TCFRJ_Je0_eDT-76">
          <mxGeometry relative="1" as="geometry">
            <mxPoint x="347" y="560" as="targetPoint" />
            <mxPoint x="706" y="344" as="sourcePoint" />
            <Array as="points">
              <mxPoint x="706" y="560" />
            </Array>
          </mxGeometry>
        </mxCell>
        <mxCell id="LpadgL2TCFRJ_Je0_eDT-114" style="edgeStyle=orthogonalEdgeStyle;rounded=0;orthogonalLoop=1;jettySize=auto;html=1;exitX=0.25;exitY=1;exitDx=0;exitDy=0;endArrow=none;endFill=0;startArrow=classic;startFill=1;align=center;fillColor=#f8cecc;strokeColor=#b85450;fontSize=11;" edge="1" parent="LpadgL2TCFRJ_Je0_eDT-63" source="LpadgL2TCFRJ_Je0_eDT-79">
          <mxGeometry relative="1" as="geometry">
            <mxPoint x="270" y="542" as="targetPoint" />
            <mxPoint x="824" y="516" as="sourcePoint" />
            <Array as="points">
              <mxPoint x="810" y="542" />
            </Array>
          </mxGeometry>
        </mxCell>
        <mxCell id="LpadgL2TCFRJ_Je0_eDT-115" style="edgeStyle=orthogonalEdgeStyle;rounded=0;orthogonalLoop=1;jettySize=auto;html=1;endArrow=none;endFill=0;startArrow=classic;startFill=1;align=center;fillColor=#dae8fc;strokeColor=#6c8ebf;fontSize=11;exitX=0.75;exitY=1;exitDx=0;exitDy=0;" edge="1" parent="LpadgL2TCFRJ_Je0_eDT-63" source="LpadgL2TCFRJ_Je0_eDT-79">
          <mxGeometry relative="1" as="geometry">
            <mxPoint x="347" y="560" as="targetPoint" />
            <mxPoint x="851" y="506" as="sourcePoint" />
            <Array as="points">
              <mxPoint x="873" y="560" />
            </Array>
          </mxGeometry>
        </mxCell>
        <mxCell id="LpadgL2TCFRJ_Je0_eDT-116" value="" style="endArrow=classic;html=1;rounded=0;entryX=0.75;entryY=1;entryDx=0;entryDy=0;strokeColor=none;fontSize=11;" edge="1" parent="LpadgL2TCFRJ_Je0_eDT-63">
          <mxGeometry width="50" height="50" relative="1" as="geometry">
            <mxPoint x="493" y="646.8299999999999" as="sourcePoint" />
            <mxPoint x="836" y="494.9999999999998" as="targetPoint" />
            <Array as="points">
              <mxPoint x="569" y="647" />
              <mxPoint x="868" y="640.8299999999999" />
            </Array>
          </mxGeometry>
        </mxCell>
        <mxCell id="LpadgL2TCFRJ_Je0_eDT-117" style="edgeStyle=orthogonalEdgeStyle;rounded=0;orthogonalLoop=1;jettySize=auto;html=1;entryX=0.75;entryY=0;entryDx=0;entryDy=0;fontSize=11;fillColor=#dae8fc;strokeColor=#6c8ebf;" edge="1" parent="LpadgL2TCFRJ_Je0_eDT-63" target="LpadgL2TCFRJ_Je0_eDT-73">
          <mxGeometry relative="1" as="geometry">
            <mxPoint x="346" y="53" as="sourcePoint" />
            <mxPoint x="530.02" y="156.83000000000004" as="targetPoint" />
            <Array as="points" />
          </mxGeometry>
        </mxCell>
        <mxCell id="LpadgL2TCFRJ_Je0_eDT-118" style="edgeStyle=orthogonalEdgeStyle;rounded=0;orthogonalLoop=1;jettySize=auto;html=1;entryX=0.25;entryY=0;entryDx=0;entryDy=0;fontSize=11;fillColor=#f8cecc;strokeColor=#b85450;" edge="1" parent="LpadgL2TCFRJ_Je0_eDT-63" target="LpadgL2TCFRJ_Je0_eDT-73">
          <mxGeometry relative="1" as="geometry">
            <mxPoint x="265" y="69" as="sourcePoint" />
            <mxPoint x="470.0100000000002" y="124.83000000000004" as="targetPoint" />
            <Array as="points">
              <mxPoint x="480" y="69" />
            </Array>
          </mxGeometry>
        </mxCell>
        <mxCell id="LpadgL2TCFRJ_Je0_eDT-119" style="edgeStyle=orthogonalEdgeStyle;rounded=0;orthogonalLoop=1;jettySize=auto;html=1;entryX=0.25;entryY=0;entryDx=0;entryDy=0;fontSize=11;fillColor=#f8cecc;strokeColor=#b85450;" edge="1" parent="LpadgL2TCFRJ_Je0_eDT-63" target="LpadgL2TCFRJ_Je0_eDT-76">
          <mxGeometry relative="1" as="geometry">
            <mxPoint x="480" y="69" as="sourcePoint" />
            <mxPoint x="650" y="220.83000000000004" as="targetPoint" />
            <Array as="points">
              <mxPoint x="649" y="69" />
            </Array>
          </mxGeometry>
        </mxCell>
        <mxCell id="LpadgL2TCFRJ_Je0_eDT-120" style="edgeStyle=orthogonalEdgeStyle;rounded=0;orthogonalLoop=1;jettySize=auto;html=1;entryX=0.75;entryY=0;entryDx=0;entryDy=0;fontSize=11;fillColor=#dae8fc;strokeColor=#6c8ebf;" edge="1" parent="LpadgL2TCFRJ_Je0_eDT-63" target="LpadgL2TCFRJ_Je0_eDT-76">
          <mxGeometry relative="1" as="geometry">
            <mxPoint x="537" y="53" as="sourcePoint" />
            <mxPoint x="707" y="215" as="targetPoint" />
            <Array as="points" />
          </mxGeometry>
        </mxCell>
        <mxCell id="LpadgL2TCFRJ_Je0_eDT-121" style="edgeStyle=orthogonalEdgeStyle;rounded=0;orthogonalLoop=1;jettySize=auto;html=1;entryX=0.25;entryY=0;entryDx=0;entryDy=0;fontSize=11;fillColor=#f8cecc;strokeColor=#b85450;" edge="1" parent="LpadgL2TCFRJ_Je0_eDT-63" target="LpadgL2TCFRJ_Je0_eDT-79">
          <mxGeometry relative="1" as="geometry">
            <mxPoint x="649" y="69" as="sourcePoint" />
            <mxPoint x="817" y="293" as="targetPoint" />
            <Array as="points">
              <mxPoint x="811" y="69" />
              <mxPoint x="811" y="331" />
            </Array>
          </mxGeometry>
        </mxCell>
        <mxCell id="LpadgL2TCFRJ_Je0_eDT-122" style="edgeStyle=orthogonalEdgeStyle;rounded=0;orthogonalLoop=1;jettySize=auto;html=1;entryX=0.75;entryY=0;entryDx=0;entryDy=0;fontSize=11;fillColor=#dae8fc;strokeColor=#6c8ebf;" edge="1" parent="LpadgL2TCFRJ_Je0_eDT-63" target="LpadgL2TCFRJ_Je0_eDT-79">
          <mxGeometry relative="1" as="geometry">
            <mxPoint x="700" y="53" as="sourcePoint" />
            <mxPoint x="868" y="290" as="targetPoint" />
            <Array as="points">
              <mxPoint x="704" y="53" />
              <mxPoint x="873" y="53" />
            </Array>
          </mxGeometry>
        </mxCell>
        <mxCell id="LpadgL2TCFRJ_Je0_eDT-123" style="edgeStyle=orthogonalEdgeStyle;rounded=0;orthogonalLoop=1;jettySize=auto;html=1;entryX=0;entryY=0.5;entryDx=0;entryDy=0;align=center;fontSize=11;" edge="1" parent="LpadgL2TCFRJ_Je0_eDT-63" target="LpadgL2TCFRJ_Je0_eDT-76">
          <mxGeometry relative="1" as="geometry">
            <mxPoint x="253" y="239" as="sourcePoint" />
            <mxPoint x="623" y="307.91999999999996" as="targetPoint" />
            <Array as="points">
              <mxPoint x="253" y="308" />
            </Array>
          </mxGeometry>
        </mxCell>
        <mxCell id="LpadgL2TCFRJ_Je0_eDT-124" style="edgeStyle=orthogonalEdgeStyle;rounded=0;orthogonalLoop=1;jettySize=auto;html=1;entryX=0;entryY=0.75;entryDx=0;entryDy=0;align=center;fontSize=11;" edge="1" parent="LpadgL2TCFRJ_Je0_eDT-63" target="LpadgL2TCFRJ_Je0_eDT-76">
          <mxGeometry relative="1" as="geometry">
            <mxPoint x="227" y="266" as="sourcePoint" />
            <mxPoint x="556" y="336.4999999999999" as="targetPoint" />
            <Array as="points">
              <mxPoint x="227" y="326" />
            </Array>
          </mxGeometry>
        </mxCell>
        <mxCell id="LpadgL2TCFRJ_Je0_eDT-547" value="" style="swimlane;startSize=0;" vertex="1" parent="1">
          <mxGeometry x="-967" y="1264" width="1350" height="663" as="geometry">
            <mxRectangle x="19" y="-62" width="50" height="44" as="alternateBounds" />
          </mxGeometry>
        </mxCell>
        <mxCell id="LpadgL2TCFRJ_Je0_eDT-548" value="" style="endArrow=none;html=1;rounded=0;exitX=0.001;exitY=0.896;exitDx=0;exitDy=0;entryX=1.002;entryY=0.898;entryDx=0;entryDy=0;exitPerimeter=0;entryPerimeter=0;" edge="1" parent="LpadgL2TCFRJ_Je0_eDT-547">
          <mxGeometry width="50" height="50" relative="1" as="geometry">
            <mxPoint y="594" as="sourcePoint" />
            <mxPoint x="931" y="596" as="targetPoint" />
          </mxGeometry>
        </mxCell>
        <mxCell id="LpadgL2TCFRJ_Je0_eDT-549" style="edgeStyle=orthogonalEdgeStyle;rounded=0;orthogonalLoop=1;jettySize=auto;html=1;endArrow=none;endFill=0;" edge="1" parent="LpadgL2TCFRJ_Je0_eDT-547">
          <mxGeometry relative="1" as="geometry">
            <mxPoint x="120" y="662" as="targetPoint" />
            <mxPoint x="120" y="594" as="sourcePoint" />
          </mxGeometry>
        </mxCell>
        <mxCell id="LpadgL2TCFRJ_Je0_eDT-550" style="edgeStyle=orthogonalEdgeStyle;rounded=0;orthogonalLoop=1;jettySize=auto;html=1;endArrow=none;endFill=0;" edge="1" parent="LpadgL2TCFRJ_Je0_eDT-547">
          <mxGeometry relative="1" as="geometry">
            <mxPoint x="665" y="663" as="targetPoint" />
            <mxPoint x="665" y="595" as="sourcePoint" />
          </mxGeometry>
        </mxCell>
        <mxCell id="LpadgL2TCFRJ_Je0_eDT-551" value="NODE:" style="text;html=1;strokeColor=none;fillColor=none;align=center;verticalAlign=middle;whiteSpace=wrap;rounded=0;" vertex="1" parent="LpadgL2TCFRJ_Je0_eDT-547">
          <mxGeometry y="591" width="44" height="30" as="geometry" />
        </mxCell>
        <mxCell id="LpadgL2TCFRJ_Je0_eDT-552" value="TITILE:" style="text;html=1;strokeColor=none;fillColor=none;align=center;verticalAlign=middle;whiteSpace=wrap;rounded=0;" vertex="1" parent="LpadgL2TCFRJ_Je0_eDT-547">
          <mxGeometry x="120" y="591" width="44" height="30" as="geometry" />
        </mxCell>
        <mxCell id="LpadgL2TCFRJ_Je0_eDT-553" value="NUMBER:" style="text;html=1;strokeColor=none;fillColor=none;align=center;verticalAlign=middle;whiteSpace=wrap;rounded=0;" vertex="1" parent="LpadgL2TCFRJ_Je0_eDT-547">
          <mxGeometry x="663" y="591" width="67" height="30" as="geometry" />
        </mxCell>
        <mxCell id="LpadgL2TCFRJ_Je0_eDT-554" value="А1" style="text;html=1;strokeColor=none;fillColor=none;align=center;verticalAlign=middle;whiteSpace=wrap;rounded=0;fontSize=13;" vertex="1" parent="LpadgL2TCFRJ_Je0_eDT-547">
          <mxGeometry x="49" y="617" width="23" height="22" as="geometry" />
        </mxCell>
        <mxCell id="LpadgL2TCFRJ_Je0_eDT-555" value="АВТОРИЗАЦИЯ В СИСТЕМЕ" style="text;html=1;strokeColor=none;fillColor=none;align=center;verticalAlign=middle;whiteSpace=wrap;rounded=0;fontSize=13;" vertex="1" parent="LpadgL2TCFRJ_Je0_eDT-547">
          <mxGeometry x="211" y="621" width="404" height="22" as="geometry" />
        </mxCell>
        <mxCell id="LpadgL2TCFRJ_Je0_eDT-556" value="" style="endArrow=classic;html=1;rounded=1;entryX=0.5;entryY=1;entryDx=0;entryDy=0;strokeColor=none;fontSize=11;" edge="1" parent="LpadgL2TCFRJ_Je0_eDT-547">
          <mxGeometry width="50" height="50" relative="1" as="geometry">
            <mxPoint x="-1301" y="1018.83" as="sourcePoint" />
            <mxPoint x="387.3299999999999" y="590.9999999999995" as="targetPoint" />
          </mxGeometry>
        </mxCell>
        <mxCell id="LpadgL2TCFRJ_Je0_eDT-557" value="" style="endArrow=classic;html=1;rounded=0;entryX=0.75;entryY=1;entryDx=0;entryDy=0;strokeColor=none;fontSize=11;" edge="1" parent="LpadgL2TCFRJ_Je0_eDT-547">
          <mxGeometry width="50" height="50" relative="1" as="geometry">
            <mxPoint x="493" y="646.8299999999999" as="sourcePoint" />
            <mxPoint x="836" y="494.9999999999998" as="targetPoint" />
            <Array as="points">
              <mxPoint x="569" y="647" />
              <mxPoint x="868" y="640.8299999999999" />
            </Array>
          </mxGeometry>
        </mxCell>
        <mxCell id="LpadgL2TCFRJ_Je0_eDT-558" style="edgeStyle=orthogonalEdgeStyle;rounded=0;orthogonalLoop=1;jettySize=auto;html=1;exitX=0.998;exitY=0.386;exitDx=0;exitDy=0;entryX=0;entryY=0.25;entryDx=0;entryDy=0;exitPerimeter=0;" edge="1" parent="LpadgL2TCFRJ_Je0_eDT-547" source="LpadgL2TCFRJ_Je0_eDT-559" target="LpadgL2TCFRJ_Je0_eDT-564">
          <mxGeometry relative="1" as="geometry" />
        </mxCell>
        <mxCell id="LpadgL2TCFRJ_Je0_eDT-559" value="&lt;br&gt;" style="rounded=0;whiteSpace=wrap;html=1;fillColor=#fffbf2;shadow=1;" vertex="1" parent="LpadgL2TCFRJ_Je0_eDT-547">
          <mxGeometry x="190" y="99" width="153" height="74" as="geometry" />
        </mxCell>
        <mxCell id="LpadgL2TCFRJ_Je0_eDT-560" value="" style="endArrow=none;html=1;rounded=0;exitX=0;exitY=0.75;exitDx=0;exitDy=0;entryX=1;entryY=0.75;entryDx=0;entryDy=0;" edge="1" parent="LpadgL2TCFRJ_Je0_eDT-547">
          <mxGeometry width="50" height="50" relative="1" as="geometry">
            <mxPoint x="190" y="144" as="sourcePoint" />
            <mxPoint x="343" y="144" as="targetPoint" />
          </mxGeometry>
        </mxCell>
        <mxCell id="LpadgL2TCFRJ_Je0_eDT-561" value="Обработка логина и пароля" style="text;html=1;strokeColor=none;fillColor=none;align=center;verticalAlign=middle;whiteSpace=wrap;rounded=0;" vertex="1" parent="LpadgL2TCFRJ_Je0_eDT-547">
          <mxGeometry x="213" y="105" width="107" height="30" as="geometry" />
        </mxCell>
        <mxCell id="LpadgL2TCFRJ_Je0_eDT-562" value="1.1.1" style="text;html=1;strokeColor=none;fillColor=none;align=left;verticalAlign=middle;whiteSpace=wrap;rounded=0;" vertex="1" parent="LpadgL2TCFRJ_Je0_eDT-547">
          <mxGeometry x="197" y="147" width="44" height="23" as="geometry" />
        </mxCell>
        <mxCell id="LpadgL2TCFRJ_Je0_eDT-563" value="" style="endArrow=none;html=1;rounded=0;exitX=0.5;exitY=1;exitDx=0;exitDy=0;" edge="1" parent="LpadgL2TCFRJ_Je0_eDT-547" source="LpadgL2TCFRJ_Je0_eDT-559">
          <mxGeometry width="50" height="50" relative="1" as="geometry">
            <mxPoint x="266.21" y="172" as="sourcePoint" />
            <mxPoint x="266.71" y="144" as="targetPoint" />
          </mxGeometry>
        </mxCell>
        <mxCell id="LpadgL2TCFRJ_Je0_eDT-564" value="&lt;div style=&quot;&quot;&gt;&amp;nbsp; &amp;nbsp;X&lt;/div&gt;" style="rounded=0;whiteSpace=wrap;html=1;fillColor=#FFFBF2;align=center;shadow=1;strokeWidth=1;" vertex="1" parent="LpadgL2TCFRJ_Je0_eDT-547">
          <mxGeometry x="387" y="120" width="38" height="30" as="geometry" />
        </mxCell>
        <mxCell id="LpadgL2TCFRJ_Je0_eDT-565" style="edgeStyle=orthogonalEdgeStyle;rounded=0;orthogonalLoop=1;jettySize=auto;html=1;exitX=0.25;exitY=0;exitDx=0;exitDy=0;entryX=0.25;entryY=1;entryDx=0;entryDy=0;endArrow=none;endFill=0;strokeColor=default;" edge="1" parent="LpadgL2TCFRJ_Je0_eDT-547" source="LpadgL2TCFRJ_Je0_eDT-564" target="LpadgL2TCFRJ_Je0_eDT-564">
          <mxGeometry relative="1" as="geometry">
            <Array as="points">
              <mxPoint x="396" y="120" />
              <mxPoint x="396" y="150" />
            </Array>
          </mxGeometry>
        </mxCell>
        <mxCell id="LpadgL2TCFRJ_Je0_eDT-566" style="edgeStyle=orthogonalEdgeStyle;rounded=0;orthogonalLoop=1;jettySize=auto;html=1;exitX=1;exitY=0.5;exitDx=0;exitDy=0;entryX=0;entryY=0.5;entryDx=0;entryDy=0;" edge="1" parent="LpadgL2TCFRJ_Je0_eDT-547" source="LpadgL2TCFRJ_Je0_eDT-568" target="LpadgL2TCFRJ_Je0_eDT-580">
          <mxGeometry relative="1" as="geometry" />
        </mxCell>
        <mxCell id="LpadgL2TCFRJ_Je0_eDT-567" style="edgeStyle=orthogonalEdgeStyle;rounded=0;orthogonalLoop=1;jettySize=auto;html=1;entryX=-0.009;entryY=0.626;entryDx=0;entryDy=0;entryPerimeter=0;" edge="1" parent="LpadgL2TCFRJ_Je0_eDT-547" source="LpadgL2TCFRJ_Je0_eDT-568" target="LpadgL2TCFRJ_Je0_eDT-574">
          <mxGeometry relative="1" as="geometry">
            <mxPoint x="542.4285714285716" y="86.35714285714266" as="targetPoint" />
            <Array as="points">
              <mxPoint x="520" y="135" />
              <mxPoint x="520" y="87" />
            </Array>
          </mxGeometry>
        </mxCell>
        <mxCell id="LpadgL2TCFRJ_Je0_eDT-568" value="&lt;div style=&quot;&quot;&gt;&amp;nbsp; &amp;amp;&lt;/div&gt;" style="rounded=0;whiteSpace=wrap;html=1;fillColor=#FFFBF2;align=center;shadow=1;strokeWidth=1;" vertex="1" parent="LpadgL2TCFRJ_Je0_eDT-547">
          <mxGeometry x="459" y="120" width="38" height="30" as="geometry" />
        </mxCell>
        <mxCell id="LpadgL2TCFRJ_Je0_eDT-569" style="edgeStyle=orthogonalEdgeStyle;rounded=0;orthogonalLoop=1;jettySize=auto;html=1;exitX=1;exitY=0.5;exitDx=0;exitDy=0;entryX=0;entryY=0.5;entryDx=0;entryDy=0;" edge="1" parent="LpadgL2TCFRJ_Je0_eDT-547" source="LpadgL2TCFRJ_Je0_eDT-564" target="LpadgL2TCFRJ_Je0_eDT-568">
          <mxGeometry relative="1" as="geometry" />
        </mxCell>
        <mxCell id="LpadgL2TCFRJ_Je0_eDT-570" style="edgeStyle=orthogonalEdgeStyle;rounded=0;orthogonalLoop=1;jettySize=auto;html=1;exitX=0.25;exitY=0;exitDx=0;exitDy=0;entryX=0.25;entryY=1;entryDx=0;entryDy=0;endArrow=none;endFill=0;strokeColor=default;" edge="1" parent="LpadgL2TCFRJ_Je0_eDT-547" source="LpadgL2TCFRJ_Je0_eDT-568" target="LpadgL2TCFRJ_Je0_eDT-568">
          <mxGeometry relative="1" as="geometry">
            <Array as="points">
              <mxPoint x="468" y="120" />
              <mxPoint x="468" y="150" />
            </Array>
          </mxGeometry>
        </mxCell>
        <mxCell id="LpadgL2TCFRJ_Je0_eDT-571" value="J1" style="text;html=1;strokeColor=none;fillColor=none;align=center;verticalAlign=middle;whiteSpace=wrap;rounded=0;" vertex="1" parent="LpadgL2TCFRJ_Je0_eDT-547">
          <mxGeometry x="465.5" y="155.5" width="25" height="21.5" as="geometry" />
        </mxCell>
        <mxCell id="LpadgL2TCFRJ_Je0_eDT-572" value="J3" style="text;html=1;strokeColor=none;fillColor=none;align=center;verticalAlign=middle;whiteSpace=wrap;rounded=0;" vertex="1" parent="LpadgL2TCFRJ_Je0_eDT-547">
          <mxGeometry x="393.5" y="155.5" width="25" height="21.5" as="geometry" />
        </mxCell>
        <mxCell id="LpadgL2TCFRJ_Je0_eDT-573" style="edgeStyle=orthogonalEdgeStyle;rounded=0;orthogonalLoop=1;jettySize=auto;html=1;entryX=0.001;entryY=0.459;entryDx=0;entryDy=0;entryPerimeter=0;" edge="1" parent="LpadgL2TCFRJ_Je0_eDT-547" source="LpadgL2TCFRJ_Je0_eDT-574" target="LpadgL2TCFRJ_Je0_eDT-593">
          <mxGeometry relative="1" as="geometry" />
        </mxCell>
        <mxCell id="LpadgL2TCFRJ_Je0_eDT-574" value="&lt;br&gt;" style="rounded=0;whiteSpace=wrap;html=1;fillColor=#fffbf2;shadow=1;" vertex="1" parent="LpadgL2TCFRJ_Je0_eDT-547">
          <mxGeometry x="543" y="40.5" width="153" height="74" as="geometry" />
        </mxCell>
        <mxCell id="LpadgL2TCFRJ_Je0_eDT-575" value="" style="endArrow=none;html=1;rounded=0;exitX=0;exitY=0.75;exitDx=0;exitDy=0;entryX=1;entryY=0.75;entryDx=0;entryDy=0;" edge="1" parent="LpadgL2TCFRJ_Je0_eDT-547">
          <mxGeometry width="50" height="50" relative="1" as="geometry">
            <mxPoint x="543" y="85.5" as="sourcePoint" />
            <mxPoint x="696" y="85.5" as="targetPoint" />
          </mxGeometry>
        </mxCell>
        <mxCell id="LpadgL2TCFRJ_Je0_eDT-576" value="Соискатель найден" style="text;html=1;strokeColor=none;fillColor=none;align=center;verticalAlign=middle;whiteSpace=wrap;rounded=0;" vertex="1" parent="LpadgL2TCFRJ_Je0_eDT-547">
          <mxGeometry x="566" y="46.5" width="107" height="30" as="geometry" />
        </mxCell>
        <mxCell id="LpadgL2TCFRJ_Je0_eDT-577" value="1.1.2" style="text;html=1;strokeColor=none;fillColor=none;align=left;verticalAlign=middle;whiteSpace=wrap;rounded=0;" vertex="1" parent="LpadgL2TCFRJ_Je0_eDT-547">
          <mxGeometry x="549" y="89" width="44" height="23" as="geometry" />
        </mxCell>
        <mxCell id="LpadgL2TCFRJ_Je0_eDT-578" value="" style="endArrow=none;html=1;rounded=0;exitX=0.5;exitY=1;exitDx=0;exitDy=0;" edge="1" parent="LpadgL2TCFRJ_Je0_eDT-547" source="LpadgL2TCFRJ_Je0_eDT-574">
          <mxGeometry width="50" height="50" relative="1" as="geometry">
            <mxPoint x="619.21" y="113.5" as="sourcePoint" />
            <mxPoint x="619.71" y="85.5" as="targetPoint" />
          </mxGeometry>
        </mxCell>
        <mxCell id="LpadgL2TCFRJ_Je0_eDT-579" style="edgeStyle=orthogonalEdgeStyle;rounded=0;orthogonalLoop=1;jettySize=auto;html=1;entryX=0;entryY=0.5;entryDx=0;entryDy=0;" edge="1" parent="LpadgL2TCFRJ_Je0_eDT-547" source="LpadgL2TCFRJ_Je0_eDT-580" target="LpadgL2TCFRJ_Je0_eDT-599">
          <mxGeometry relative="1" as="geometry" />
        </mxCell>
        <mxCell id="LpadgL2TCFRJ_Je0_eDT-580" value="&lt;br&gt;" style="rounded=0;whiteSpace=wrap;html=1;fillColor=#fffbf2;shadow=1;" vertex="1" parent="LpadgL2TCFRJ_Je0_eDT-547">
          <mxGeometry x="543" y="144" width="153" height="74" as="geometry" />
        </mxCell>
        <mxCell id="LpadgL2TCFRJ_Je0_eDT-581" value="" style="endArrow=none;html=1;rounded=0;exitX=0;exitY=0.75;exitDx=0;exitDy=0;entryX=1;entryY=0.75;entryDx=0;entryDy=0;" edge="1" parent="LpadgL2TCFRJ_Je0_eDT-547">
          <mxGeometry width="50" height="50" relative="1" as="geometry">
            <mxPoint x="543" y="189" as="sourcePoint" />
            <mxPoint x="696" y="189" as="targetPoint" />
          </mxGeometry>
        </mxCell>
        <mxCell id="LpadgL2TCFRJ_Je0_eDT-582" value="Соискатель не найден" style="text;html=1;strokeColor=none;fillColor=none;align=center;verticalAlign=middle;whiteSpace=wrap;rounded=0;" vertex="1" parent="LpadgL2TCFRJ_Je0_eDT-547">
          <mxGeometry x="566" y="150" width="107" height="30" as="geometry" />
        </mxCell>
        <mxCell id="LpadgL2TCFRJ_Je0_eDT-583" value="1.1.3" style="text;html=1;strokeColor=none;fillColor=none;align=left;verticalAlign=middle;whiteSpace=wrap;rounded=0;" vertex="1" parent="LpadgL2TCFRJ_Je0_eDT-547">
          <mxGeometry x="549" y="193" width="44" height="23" as="geometry" />
        </mxCell>
        <mxCell id="LpadgL2TCFRJ_Je0_eDT-584" value="" style="endArrow=none;html=1;rounded=0;exitX=0.5;exitY=1;exitDx=0;exitDy=0;" edge="1" parent="LpadgL2TCFRJ_Je0_eDT-547" source="LpadgL2TCFRJ_Je0_eDT-580">
          <mxGeometry width="50" height="50" relative="1" as="geometry">
            <mxPoint x="619.21" y="217" as="sourcePoint" />
            <mxPoint x="619.71" y="189" as="targetPoint" />
          </mxGeometry>
        </mxCell>
        <mxCell id="LpadgL2TCFRJ_Je0_eDT-585" style="edgeStyle=orthogonalEdgeStyle;rounded=0;orthogonalLoop=1;jettySize=auto;html=1;entryX=0;entryY=0.75;entryDx=0;entryDy=0;exitX=1;exitY=0.75;exitDx=0;exitDy=0;" edge="1" parent="LpadgL2TCFRJ_Je0_eDT-547" source="LpadgL2TCFRJ_Je0_eDT-587" target="LpadgL2TCFRJ_Je0_eDT-564">
          <mxGeometry relative="1" as="geometry">
            <Array as="points">
              <mxPoint x="1236" y="121.5" />
              <mxPoint x="1236" y="239.5" />
              <mxPoint x="367" y="239.5" />
              <mxPoint x="367" y="142.5" />
            </Array>
          </mxGeometry>
        </mxCell>
        <mxCell id="LpadgL2TCFRJ_Je0_eDT-586" style="edgeStyle=orthogonalEdgeStyle;rounded=0;orthogonalLoop=1;jettySize=auto;html=1;entryX=1;entryY=0.5;entryDx=0;entryDy=0;" edge="1" parent="LpadgL2TCFRJ_Je0_eDT-547" source="LpadgL2TCFRJ_Je0_eDT-587" target="LpadgL2TCFRJ_Je0_eDT-615">
          <mxGeometry relative="1" as="geometry">
            <Array as="points">
              <mxPoint x="1260" y="114" />
              <mxPoint x="1260" y="403" />
            </Array>
          </mxGeometry>
        </mxCell>
        <mxCell id="LpadgL2TCFRJ_Je0_eDT-587" value="&lt;div style=&quot;&quot;&gt;&amp;nbsp; &amp;nbsp;X&lt;/div&gt;" style="rounded=0;whiteSpace=wrap;html=1;fillColor=#FFFBF2;align=center;shadow=1;strokeWidth=1;" vertex="1" parent="LpadgL2TCFRJ_Je0_eDT-547">
          <mxGeometry x="1190" y="99" width="38" height="30" as="geometry" />
        </mxCell>
        <mxCell id="LpadgL2TCFRJ_Je0_eDT-588" style="edgeStyle=orthogonalEdgeStyle;rounded=0;orthogonalLoop=1;jettySize=auto;html=1;exitX=0.25;exitY=0;exitDx=0;exitDy=0;entryX=0.25;entryY=1;entryDx=0;entryDy=0;endArrow=none;endFill=0;strokeColor=default;" edge="1" parent="LpadgL2TCFRJ_Je0_eDT-547" source="LpadgL2TCFRJ_Je0_eDT-587" target="LpadgL2TCFRJ_Je0_eDT-587">
          <mxGeometry relative="1" as="geometry">
            <Array as="points">
              <mxPoint x="1199" y="99" />
              <mxPoint x="1199" y="129" />
            </Array>
          </mxGeometry>
        </mxCell>
        <mxCell id="LpadgL2TCFRJ_Je0_eDT-589" style="edgeStyle=orthogonalEdgeStyle;rounded=0;orthogonalLoop=1;jettySize=auto;html=1;entryX=0;entryY=0.5;entryDx=0;entryDy=0;" edge="1" parent="LpadgL2TCFRJ_Je0_eDT-547" source="LpadgL2TCFRJ_Je0_eDT-590" target="LpadgL2TCFRJ_Je0_eDT-587">
          <mxGeometry relative="1" as="geometry" />
        </mxCell>
        <mxCell id="LpadgL2TCFRJ_Je0_eDT-590" value="&lt;div style=&quot;&quot;&gt;&amp;nbsp; &amp;amp;&lt;/div&gt;" style="rounded=0;whiteSpace=wrap;html=1;fillColor=#FFFBF2;align=center;shadow=1;strokeWidth=1;" vertex="1" parent="LpadgL2TCFRJ_Je0_eDT-547">
          <mxGeometry x="1121" y="99" width="38" height="30" as="geometry" />
        </mxCell>
        <mxCell id="LpadgL2TCFRJ_Je0_eDT-591" style="edgeStyle=orthogonalEdgeStyle;rounded=0;orthogonalLoop=1;jettySize=auto;html=1;exitX=0.25;exitY=0;exitDx=0;exitDy=0;entryX=0.25;entryY=1;entryDx=0;entryDy=0;endArrow=none;endFill=0;strokeColor=default;" edge="1" parent="LpadgL2TCFRJ_Je0_eDT-547" source="LpadgL2TCFRJ_Je0_eDT-590" target="LpadgL2TCFRJ_Je0_eDT-590">
          <mxGeometry relative="1" as="geometry">
            <Array as="points">
              <mxPoint x="1128" y="99" />
              <mxPoint x="1128" y="129" />
            </Array>
          </mxGeometry>
        </mxCell>
        <mxCell id="LpadgL2TCFRJ_Je0_eDT-592" style="edgeStyle=orthogonalEdgeStyle;rounded=0;orthogonalLoop=1;jettySize=auto;html=1;entryX=0;entryY=0.5;entryDx=0;entryDy=0;" edge="1" parent="LpadgL2TCFRJ_Je0_eDT-547" source="LpadgL2TCFRJ_Je0_eDT-593" target="LpadgL2TCFRJ_Je0_eDT-590">
          <mxGeometry relative="1" as="geometry">
            <Array as="points">
              <mxPoint x="1101" y="80" />
              <mxPoint x="1101" y="114" />
            </Array>
          </mxGeometry>
        </mxCell>
        <mxCell id="LpadgL2TCFRJ_Je0_eDT-593" value="&lt;br&gt;" style="rounded=0;whiteSpace=wrap;html=1;fillColor=#fffbf2;shadow=1;" vertex="1" parent="LpadgL2TCFRJ_Je0_eDT-547">
          <mxGeometry x="741" y="43" width="153" height="74" as="geometry" />
        </mxCell>
        <mxCell id="LpadgL2TCFRJ_Je0_eDT-594" value="" style="endArrow=none;html=1;rounded=0;exitX=0;exitY=0.75;exitDx=0;exitDy=0;entryX=1;entryY=0.75;entryDx=0;entryDy=0;" edge="1" parent="LpadgL2TCFRJ_Je0_eDT-547">
          <mxGeometry width="50" height="50" relative="1" as="geometry">
            <mxPoint x="741" y="88" as="sourcePoint" />
            <mxPoint x="894" y="88" as="targetPoint" />
          </mxGeometry>
        </mxCell>
        <mxCell id="LpadgL2TCFRJ_Je0_eDT-595" value="Полученные данных из БД" style="text;html=1;strokeColor=none;fillColor=none;align=center;verticalAlign=middle;whiteSpace=wrap;rounded=0;" vertex="1" parent="LpadgL2TCFRJ_Je0_eDT-547">
          <mxGeometry x="764" y="49" width="107" height="30" as="geometry" />
        </mxCell>
        <mxCell id="LpadgL2TCFRJ_Je0_eDT-596" value="1.1.4" style="text;html=1;strokeColor=none;fillColor=none;align=left;verticalAlign=middle;whiteSpace=wrap;rounded=0;" vertex="1" parent="LpadgL2TCFRJ_Je0_eDT-547">
          <mxGeometry x="747" y="91.5" width="44" height="23" as="geometry" />
        </mxCell>
        <mxCell id="LpadgL2TCFRJ_Je0_eDT-597" value="" style="endArrow=none;html=1;rounded=0;exitX=0.5;exitY=1;exitDx=0;exitDy=0;" edge="1" parent="LpadgL2TCFRJ_Je0_eDT-547" source="LpadgL2TCFRJ_Je0_eDT-593">
          <mxGeometry width="50" height="50" relative="1" as="geometry">
            <mxPoint x="817.21" y="116" as="sourcePoint" />
            <mxPoint x="817.71" y="88" as="targetPoint" />
          </mxGeometry>
        </mxCell>
        <mxCell id="LpadgL2TCFRJ_Je0_eDT-598" style="edgeStyle=orthogonalEdgeStyle;rounded=0;orthogonalLoop=1;jettySize=auto;html=1;entryX=0;entryY=0.5;entryDx=0;entryDy=0;" edge="1" parent="LpadgL2TCFRJ_Je0_eDT-547" source="LpadgL2TCFRJ_Je0_eDT-599" target="LpadgL2TCFRJ_Je0_eDT-605">
          <mxGeometry relative="1" as="geometry" />
        </mxCell>
        <mxCell id="LpadgL2TCFRJ_Je0_eDT-599" value="&lt;br&gt;" style="rounded=0;whiteSpace=wrap;html=1;fillColor=#fffbf2;shadow=1;" vertex="1" parent="LpadgL2TCFRJ_Je0_eDT-547">
          <mxGeometry x="741" y="144" width="153" height="74" as="geometry" />
        </mxCell>
        <mxCell id="LpadgL2TCFRJ_Je0_eDT-600" value="" style="endArrow=none;html=1;rounded=0;exitX=0;exitY=0.75;exitDx=0;exitDy=0;entryX=1;entryY=0.75;entryDx=0;entryDy=0;" edge="1" parent="LpadgL2TCFRJ_Je0_eDT-547">
          <mxGeometry width="50" height="50" relative="1" as="geometry">
            <mxPoint x="741" y="189" as="sourcePoint" />
            <mxPoint x="894" y="189" as="targetPoint" />
          </mxGeometry>
        </mxCell>
        <mxCell id="LpadgL2TCFRJ_Je0_eDT-601" value="Регистрация соискателя" style="text;html=1;strokeColor=none;fillColor=none;align=center;verticalAlign=middle;whiteSpace=wrap;rounded=0;" vertex="1" parent="LpadgL2TCFRJ_Je0_eDT-547">
          <mxGeometry x="764" y="150" width="107" height="30" as="geometry" />
        </mxCell>
        <mxCell id="LpadgL2TCFRJ_Je0_eDT-602" value="1.1.5" style="text;html=1;strokeColor=none;fillColor=none;align=left;verticalAlign=middle;whiteSpace=wrap;rounded=0;" vertex="1" parent="LpadgL2TCFRJ_Je0_eDT-547">
          <mxGeometry x="747" y="193" width="44" height="23" as="geometry" />
        </mxCell>
        <mxCell id="LpadgL2TCFRJ_Je0_eDT-603" value="" style="endArrow=none;html=1;rounded=0;exitX=0.5;exitY=1;exitDx=0;exitDy=0;" edge="1" parent="LpadgL2TCFRJ_Je0_eDT-547" source="LpadgL2TCFRJ_Je0_eDT-599">
          <mxGeometry width="50" height="50" relative="1" as="geometry">
            <mxPoint x="817.21" y="217" as="sourcePoint" />
            <mxPoint x="817.71" y="189" as="targetPoint" />
          </mxGeometry>
        </mxCell>
        <mxCell id="LpadgL2TCFRJ_Je0_eDT-604" style="edgeStyle=orthogonalEdgeStyle;rounded=0;orthogonalLoop=1;jettySize=auto;html=1;entryX=0;entryY=0.5;entryDx=0;entryDy=0;" edge="1" parent="LpadgL2TCFRJ_Je0_eDT-547" source="LpadgL2TCFRJ_Je0_eDT-605" target="LpadgL2TCFRJ_Je0_eDT-590">
          <mxGeometry relative="1" as="geometry">
            <Array as="points">
              <mxPoint x="1101" y="181" />
              <mxPoint x="1101" y="114" />
            </Array>
          </mxGeometry>
        </mxCell>
        <mxCell id="LpadgL2TCFRJ_Je0_eDT-605" value="&lt;br&gt;" style="rounded=0;whiteSpace=wrap;html=1;fillColor=#fffbf2;shadow=1;" vertex="1" parent="LpadgL2TCFRJ_Je0_eDT-547">
          <mxGeometry x="934" y="144" width="153" height="74" as="geometry" />
        </mxCell>
        <mxCell id="LpadgL2TCFRJ_Je0_eDT-606" value="" style="endArrow=none;html=1;rounded=0;exitX=0;exitY=0.75;exitDx=0;exitDy=0;entryX=1;entryY=0.75;entryDx=0;entryDy=0;" edge="1" parent="LpadgL2TCFRJ_Je0_eDT-547">
          <mxGeometry width="50" height="50" relative="1" as="geometry">
            <mxPoint x="934" y="189" as="sourcePoint" />
            <mxPoint x="1087" y="189" as="targetPoint" />
          </mxGeometry>
        </mxCell>
        <mxCell id="LpadgL2TCFRJ_Je0_eDT-607" value="Внесение данных в БД" style="text;html=1;strokeColor=none;fillColor=none;align=center;verticalAlign=middle;whiteSpace=wrap;rounded=0;" vertex="1" parent="LpadgL2TCFRJ_Je0_eDT-547">
          <mxGeometry x="957" y="150" width="107" height="30" as="geometry" />
        </mxCell>
        <mxCell id="LpadgL2TCFRJ_Je0_eDT-608" value="1.1.6" style="text;html=1;strokeColor=none;fillColor=none;align=left;verticalAlign=middle;whiteSpace=wrap;rounded=0;" vertex="1" parent="LpadgL2TCFRJ_Je0_eDT-547">
          <mxGeometry x="940" y="193" width="44" height="23" as="geometry" />
        </mxCell>
        <mxCell id="LpadgL2TCFRJ_Je0_eDT-609" value="" style="endArrow=none;html=1;rounded=0;exitX=0.5;exitY=1;exitDx=0;exitDy=0;" edge="1" parent="LpadgL2TCFRJ_Je0_eDT-547" source="LpadgL2TCFRJ_Je0_eDT-605">
          <mxGeometry width="50" height="50" relative="1" as="geometry">
            <mxPoint x="1010.21" y="217" as="sourcePoint" />
            <mxPoint x="1010.71" y="189" as="targetPoint" />
          </mxGeometry>
        </mxCell>
        <mxCell id="LpadgL2TCFRJ_Je0_eDT-610" value="&lt;font style=&quot;font-size: 11px;&quot;&gt;Логин и пароль&lt;/font&gt;" style="text;html=1;strokeColor=none;fillColor=none;align=left;verticalAlign=middle;whiteSpace=wrap;rounded=0;fontSize=11;" vertex="1" parent="LpadgL2TCFRJ_Je0_eDT-547">
          <mxGeometry x="32" y="99" width="85" height="17" as="geometry" />
        </mxCell>
        <mxCell id="LpadgL2TCFRJ_Je0_eDT-611" style="edgeStyle=orthogonalEdgeStyle;rounded=0;orthogonalLoop=1;jettySize=auto;html=1;entryX=0;entryY=0.5;entryDx=0;entryDy=0;fontSize=11;spacing=1;" edge="1" parent="LpadgL2TCFRJ_Je0_eDT-547">
          <mxGeometry relative="1" as="geometry">
            <mxPoint x="33" y="147.17000000000007" as="sourcePoint" />
            <mxPoint x="190" y="147.01" as="targetPoint" />
            <Array as="points">
              <mxPoint x="103" y="147.51" />
              <mxPoint x="103" y="147.51" />
            </Array>
          </mxGeometry>
        </mxCell>
        <mxCell id="LpadgL2TCFRJ_Je0_eDT-612" value="&lt;font style=&quot;font-size: 11px;&quot;&gt;Личные данные соискателя&lt;/font&gt;" style="text;html=1;strokeColor=none;fillColor=none;align=left;verticalAlign=middle;whiteSpace=wrap;rounded=0;fontSize=11;" vertex="1" parent="LpadgL2TCFRJ_Je0_eDT-547">
          <mxGeometry x="32" y="127.47000000000003" width="145" height="15.11" as="geometry" />
        </mxCell>
        <mxCell id="LpadgL2TCFRJ_Je0_eDT-613" style="edgeStyle=orthogonalEdgeStyle;rounded=0;orthogonalLoop=1;jettySize=auto;html=1;entryX=0;entryY=0.5;entryDx=0;entryDy=0;fontSize=11;spacing=1;" edge="1" parent="LpadgL2TCFRJ_Je0_eDT-547">
          <mxGeometry relative="1" as="geometry">
            <mxPoint x="33" y="119.32999999999993" as="sourcePoint" />
            <mxPoint x="190" y="119.17000000000007" as="targetPoint" />
            <Array as="points">
              <mxPoint x="103" y="119.67000000000007" />
              <mxPoint x="103" y="119.67000000000007" />
            </Array>
          </mxGeometry>
        </mxCell>
        <mxCell id="LpadgL2TCFRJ_Je0_eDT-614" style="edgeStyle=orthogonalEdgeStyle;rounded=0;orthogonalLoop=1;jettySize=auto;html=1;entryX=1;entryY=0.5;entryDx=0;entryDy=0;" edge="1" parent="LpadgL2TCFRJ_Je0_eDT-547" source="LpadgL2TCFRJ_Je0_eDT-615">
          <mxGeometry relative="1" as="geometry">
            <mxPoint x="948.0000000000005" y="403.00000000000045" as="targetPoint" />
          </mxGeometry>
        </mxCell>
        <mxCell id="LpadgL2TCFRJ_Je0_eDT-615" value="&lt;br&gt;" style="rounded=0;whiteSpace=wrap;html=1;fillColor=#fffbf2;shadow=1;" vertex="1" parent="LpadgL2TCFRJ_Je0_eDT-547">
          <mxGeometry x="1009" y="366" width="153" height="74" as="geometry" />
        </mxCell>
        <mxCell id="LpadgL2TCFRJ_Je0_eDT-616" value="" style="endArrow=none;html=1;rounded=0;exitX=0;exitY=0.75;exitDx=0;exitDy=0;entryX=1;entryY=0.75;entryDx=0;entryDy=0;" edge="1" parent="LpadgL2TCFRJ_Je0_eDT-547">
          <mxGeometry width="50" height="50" relative="1" as="geometry">
            <mxPoint x="1009" y="411" as="sourcePoint" />
            <mxPoint x="1162" y="411" as="targetPoint" />
          </mxGeometry>
        </mxCell>
        <mxCell id="LpadgL2TCFRJ_Je0_eDT-617" value="Создание сессии&lt;br&gt;в системе" style="text;html=1;strokeColor=none;fillColor=none;align=center;verticalAlign=middle;whiteSpace=wrap;rounded=0;" vertex="1" parent="LpadgL2TCFRJ_Je0_eDT-547">
          <mxGeometry x="1032" y="372" width="106" height="30" as="geometry" />
        </mxCell>
        <mxCell id="LpadgL2TCFRJ_Je0_eDT-618" value="1.1.7" style="text;html=1;strokeColor=none;fillColor=none;align=left;verticalAlign=middle;whiteSpace=wrap;rounded=0;" vertex="1" parent="LpadgL2TCFRJ_Je0_eDT-547">
          <mxGeometry x="1015" y="415" width="44" height="23" as="geometry" />
        </mxCell>
        <mxCell id="LpadgL2TCFRJ_Je0_eDT-619" value="" style="endArrow=none;html=1;rounded=0;exitX=0.5;exitY=1;exitDx=0;exitDy=0;" edge="1" parent="LpadgL2TCFRJ_Je0_eDT-547" source="LpadgL2TCFRJ_Je0_eDT-615">
          <mxGeometry width="50" height="50" relative="1" as="geometry">
            <mxPoint x="1085.21" y="439" as="sourcePoint" />
            <mxPoint x="1085.71" y="411" as="targetPoint" />
          </mxGeometry>
        </mxCell>
        <mxCell id="LpadgL2TCFRJ_Je0_eDT-620" style="edgeStyle=orthogonalEdgeStyle;rounded=0;orthogonalLoop=1;jettySize=auto;html=1;exitX=0.5;exitY=0;exitDx=0;exitDy=0;entryX=0.5;entryY=1;entryDx=0;entryDy=0;dashed=1;" edge="1" parent="LpadgL2TCFRJ_Je0_eDT-547" source="LpadgL2TCFRJ_Je0_eDT-625" target="LpadgL2TCFRJ_Je0_eDT-559">
          <mxGeometry relative="1" as="geometry" />
        </mxCell>
        <mxCell id="LpadgL2TCFRJ_Je0_eDT-621" style="edgeStyle=orthogonalEdgeStyle;rounded=0;orthogonalLoop=1;jettySize=auto;html=1;entryX=0.5;entryY=1;entryDx=0;entryDy=0;dashed=1;" edge="1" parent="LpadgL2TCFRJ_Je0_eDT-547" source="LpadgL2TCFRJ_Je0_eDT-625" target="LpadgL2TCFRJ_Je0_eDT-599">
          <mxGeometry relative="1" as="geometry" />
        </mxCell>
        <mxCell id="LpadgL2TCFRJ_Je0_eDT-622" style="edgeStyle=orthogonalEdgeStyle;rounded=0;orthogonalLoop=1;jettySize=auto;html=1;exitX=1;exitY=0.5;exitDx=0;exitDy=0;entryX=0.5;entryY=0;entryDx=0;entryDy=0;dashed=1;" edge="1" parent="LpadgL2TCFRJ_Je0_eDT-547" source="LpadgL2TCFRJ_Je0_eDT-625" target="LpadgL2TCFRJ_Je0_eDT-636">
          <mxGeometry relative="1" as="geometry" />
        </mxCell>
        <mxCell id="LpadgL2TCFRJ_Je0_eDT-623" style="edgeStyle=orthogonalEdgeStyle;rounded=0;orthogonalLoop=1;jettySize=auto;html=1;entryX=0.5;entryY=1;entryDx=0;entryDy=0;exitX=0;exitY=0.5;exitDx=0;exitDy=0;dashed=1;" edge="1" parent="LpadgL2TCFRJ_Je0_eDT-547" source="LpadgL2TCFRJ_Je0_eDT-625" target="LpadgL2TCFRJ_Je0_eDT-642">
          <mxGeometry relative="1" as="geometry">
            <Array as="points">
              <mxPoint x="190" y="289" />
              <mxPoint x="150" y="289" />
              <mxPoint x="150" y="518" />
              <mxPoint x="715" y="518" />
            </Array>
          </mxGeometry>
        </mxCell>
        <mxCell id="LpadgL2TCFRJ_Je0_eDT-624" style="edgeStyle=orthogonalEdgeStyle;rounded=0;orthogonalLoop=1;jettySize=auto;html=1;entryX=0.5;entryY=1;entryDx=0;entryDy=0;exitX=-0.001;exitY=0.535;exitDx=0;exitDy=0;exitPerimeter=0;dashed=1;" edge="1" parent="LpadgL2TCFRJ_Je0_eDT-547" source="LpadgL2TCFRJ_Je0_eDT-625" target="LpadgL2TCFRJ_Je0_eDT-659">
          <mxGeometry relative="1" as="geometry">
            <Array as="points">
              <mxPoint x="150" y="289" />
              <mxPoint x="150" y="460" />
              <mxPoint x="342" y="460" />
            </Array>
          </mxGeometry>
        </mxCell>
        <mxCell id="LpadgL2TCFRJ_Je0_eDT-625" value="" style="rounded=0;whiteSpace=wrap;html=1;fillColor=#fffbf2;shadow=1;" vertex="1" parent="LpadgL2TCFRJ_Je0_eDT-547">
          <mxGeometry x="190" y="255.5" width="153" height="62.5" as="geometry" />
        </mxCell>
        <mxCell id="LpadgL2TCFRJ_Je0_eDT-626" value="" style="endArrow=none;html=1;rounded=0;exitX=0;exitY=0.75;exitDx=0;exitDy=0;entryX=1;entryY=0.75;entryDx=0;entryDy=0;" edge="1" parent="LpadgL2TCFRJ_Je0_eDT-547">
          <mxGeometry width="50" height="50" relative="1" as="geometry">
            <mxPoint x="190" y="300.495" as="sourcePoint" />
            <mxPoint x="343" y="300.495" as="targetPoint" />
          </mxGeometry>
        </mxCell>
        <mxCell id="LpadgL2TCFRJ_Je0_eDT-627" value="OBJECT /&amp;nbsp;&lt;br&gt;Соискатель" style="text;html=1;strokeColor=none;fillColor=none;align=center;verticalAlign=middle;whiteSpace=wrap;rounded=0;" vertex="1" parent="LpadgL2TCFRJ_Je0_eDT-547">
          <mxGeometry x="205" y="263.5" width="123" height="30" as="geometry" />
        </mxCell>
        <mxCell id="LpadgL2TCFRJ_Je0_eDT-628" value="" style="edgeStyle=orthogonalEdgeStyle;rounded=0;orthogonalLoop=1;jettySize=auto;html=1;" edge="1" parent="LpadgL2TCFRJ_Je0_eDT-547" source="LpadgL2TCFRJ_Je0_eDT-629" target="LpadgL2TCFRJ_Je0_eDT-633">
          <mxGeometry relative="1" as="geometry" />
        </mxCell>
        <mxCell id="LpadgL2TCFRJ_Je0_eDT-629" value="&lt;div style=&quot;&quot;&gt;&amp;nbsp; &amp;nbsp;X&lt;/div&gt;" style="rounded=0;whiteSpace=wrap;html=1;fillColor=#FFFBF2;align=center;shadow=1;strokeWidth=1;" vertex="1" parent="LpadgL2TCFRJ_Je0_eDT-547">
          <mxGeometry x="908" y="388" width="38" height="30" as="geometry" />
        </mxCell>
        <mxCell id="LpadgL2TCFRJ_Je0_eDT-630" style="edgeStyle=orthogonalEdgeStyle;rounded=0;orthogonalLoop=1;jettySize=auto;html=1;exitX=0.25;exitY=0;exitDx=0;exitDy=0;entryX=0.25;entryY=1;entryDx=0;entryDy=0;endArrow=none;endFill=0;strokeColor=default;" edge="1" parent="LpadgL2TCFRJ_Je0_eDT-547" source="LpadgL2TCFRJ_Je0_eDT-629" target="LpadgL2TCFRJ_Je0_eDT-629">
          <mxGeometry relative="1" as="geometry">
            <Array as="points">
              <mxPoint x="917" y="388" />
              <mxPoint x="917" y="418" />
            </Array>
          </mxGeometry>
        </mxCell>
        <mxCell id="LpadgL2TCFRJ_Je0_eDT-631" style="edgeStyle=orthogonalEdgeStyle;rounded=0;orthogonalLoop=1;jettySize=auto;html=1;entryX=1;entryY=0.5;entryDx=0;entryDy=0;" edge="1" parent="LpadgL2TCFRJ_Je0_eDT-547" source="LpadgL2TCFRJ_Je0_eDT-633" target="LpadgL2TCFRJ_Je0_eDT-636">
          <mxGeometry relative="1" as="geometry">
            <Array as="points">
              <mxPoint x="814" y="403" />
              <mxPoint x="814" y="346" />
            </Array>
          </mxGeometry>
        </mxCell>
        <mxCell id="LpadgL2TCFRJ_Je0_eDT-632" style="edgeStyle=orthogonalEdgeStyle;rounded=0;orthogonalLoop=1;jettySize=auto;html=1;entryX=1;entryY=0.5;entryDx=0;entryDy=0;" edge="1" parent="LpadgL2TCFRJ_Je0_eDT-547" source="LpadgL2TCFRJ_Je0_eDT-633" target="LpadgL2TCFRJ_Je0_eDT-642">
          <mxGeometry relative="1" as="geometry">
            <Array as="points">
              <mxPoint x="814" y="403" />
              <mxPoint x="814" y="461" />
            </Array>
          </mxGeometry>
        </mxCell>
        <mxCell id="LpadgL2TCFRJ_Je0_eDT-633" value="&lt;div style=&quot;&quot;&gt;&amp;nbsp; &amp;amp;&lt;/div&gt;" style="rounded=0;whiteSpace=wrap;html=1;fillColor=#FFFBF2;align=center;shadow=1;strokeWidth=1;" vertex="1" parent="LpadgL2TCFRJ_Je0_eDT-547">
          <mxGeometry x="841" y="388" width="38" height="30" as="geometry" />
        </mxCell>
        <mxCell id="LpadgL2TCFRJ_Je0_eDT-634" style="edgeStyle=orthogonalEdgeStyle;rounded=0;orthogonalLoop=1;jettySize=auto;html=1;exitX=0.25;exitY=0;exitDx=0;exitDy=0;entryX=0.25;entryY=1;entryDx=0;entryDy=0;endArrow=none;endFill=0;strokeColor=default;" edge="1" parent="LpadgL2TCFRJ_Je0_eDT-547" source="LpadgL2TCFRJ_Je0_eDT-633" target="LpadgL2TCFRJ_Je0_eDT-633">
          <mxGeometry relative="1" as="geometry">
            <Array as="points">
              <mxPoint x="850" y="388" />
              <mxPoint x="850" y="418" />
            </Array>
          </mxGeometry>
        </mxCell>
        <mxCell id="LpadgL2TCFRJ_Je0_eDT-635" style="edgeStyle=orthogonalEdgeStyle;rounded=0;orthogonalLoop=1;jettySize=auto;html=1;entryX=1;entryY=0.5;entryDx=0;entryDy=0;" edge="1" parent="LpadgL2TCFRJ_Je0_eDT-547" source="LpadgL2TCFRJ_Je0_eDT-636" target="LpadgL2TCFRJ_Je0_eDT-648">
          <mxGeometry relative="1" as="geometry">
            <Array as="points">
              <mxPoint x="614" y="346" />
              <mxPoint x="614" y="403" />
            </Array>
          </mxGeometry>
        </mxCell>
        <mxCell id="LpadgL2TCFRJ_Je0_eDT-636" value="&lt;br&gt;" style="rounded=0;whiteSpace=wrap;html=1;fillColor=#fffbf2;shadow=1;" vertex="1" parent="LpadgL2TCFRJ_Je0_eDT-547">
          <mxGeometry x="635" y="308.5" width="153" height="74" as="geometry" />
        </mxCell>
        <mxCell id="LpadgL2TCFRJ_Je0_eDT-637" value="" style="endArrow=none;html=1;rounded=0;exitX=0;exitY=0.75;exitDx=0;exitDy=0;entryX=1;entryY=0.75;entryDx=0;entryDy=0;" edge="1" parent="LpadgL2TCFRJ_Je0_eDT-547">
          <mxGeometry width="50" height="50" relative="1" as="geometry">
            <mxPoint x="635" y="353.5" as="sourcePoint" />
            <mxPoint x="788" y="353.5" as="targetPoint" />
          </mxGeometry>
        </mxCell>
        <mxCell id="LpadgL2TCFRJ_Je0_eDT-638" value="Создать первого резюме" style="text;html=1;strokeColor=none;fillColor=none;align=center;verticalAlign=middle;whiteSpace=wrap;rounded=0;" vertex="1" parent="LpadgL2TCFRJ_Je0_eDT-547">
          <mxGeometry x="658" y="314.5" width="106" height="30" as="geometry" />
        </mxCell>
        <mxCell id="LpadgL2TCFRJ_Je0_eDT-639" value="1.1.8" style="text;html=1;strokeColor=none;fillColor=none;align=left;verticalAlign=middle;whiteSpace=wrap;rounded=0;" vertex="1" parent="LpadgL2TCFRJ_Je0_eDT-547">
          <mxGeometry x="641" y="357.5" width="44" height="23" as="geometry" />
        </mxCell>
        <mxCell id="LpadgL2TCFRJ_Je0_eDT-640" value="" style="endArrow=none;html=1;rounded=0;exitX=0.5;exitY=1;exitDx=0;exitDy=0;" edge="1" parent="LpadgL2TCFRJ_Je0_eDT-547" source="LpadgL2TCFRJ_Je0_eDT-636">
          <mxGeometry width="50" height="50" relative="1" as="geometry">
            <mxPoint x="711.21" y="381.5" as="sourcePoint" />
            <mxPoint x="711.71" y="353.5" as="targetPoint" />
          </mxGeometry>
        </mxCell>
        <mxCell id="LpadgL2TCFRJ_Je0_eDT-641" style="edgeStyle=orthogonalEdgeStyle;rounded=0;orthogonalLoop=1;jettySize=auto;html=1;entryX=1;entryY=0.5;entryDx=0;entryDy=0;" edge="1" parent="LpadgL2TCFRJ_Je0_eDT-547" source="LpadgL2TCFRJ_Je0_eDT-642" target="LpadgL2TCFRJ_Je0_eDT-648">
          <mxGeometry relative="1" as="geometry">
            <Array as="points">
              <mxPoint x="614" y="461" />
              <mxPoint x="614" y="403" />
            </Array>
          </mxGeometry>
        </mxCell>
        <mxCell id="LpadgL2TCFRJ_Je0_eDT-642" value="&lt;br&gt;" style="rounded=0;whiteSpace=wrap;html=1;fillColor=#fffbf2;shadow=1;" vertex="1" parent="LpadgL2TCFRJ_Je0_eDT-547">
          <mxGeometry x="638" y="423.5" width="153" height="74" as="geometry" />
        </mxCell>
        <mxCell id="LpadgL2TCFRJ_Je0_eDT-643" value="" style="endArrow=none;html=1;rounded=0;exitX=0;exitY=0.75;exitDx=0;exitDy=0;entryX=1;entryY=0.75;entryDx=0;entryDy=0;" edge="1" parent="LpadgL2TCFRJ_Je0_eDT-547">
          <mxGeometry width="50" height="50" relative="1" as="geometry">
            <mxPoint x="638" y="468.5" as="sourcePoint" />
            <mxPoint x="791" y="468.5" as="targetPoint" />
          </mxGeometry>
        </mxCell>
        <mxCell id="LpadgL2TCFRJ_Je0_eDT-644" value="Продолжить работу в системе" style="text;html=1;strokeColor=none;fillColor=none;align=center;verticalAlign=middle;whiteSpace=wrap;rounded=0;" vertex="1" parent="LpadgL2TCFRJ_Je0_eDT-547">
          <mxGeometry x="661" y="429.5" width="106" height="30" as="geometry" />
        </mxCell>
        <mxCell id="LpadgL2TCFRJ_Je0_eDT-645" value="1.1.9" style="text;html=1;strokeColor=none;fillColor=none;align=left;verticalAlign=middle;whiteSpace=wrap;rounded=0;" vertex="1" parent="LpadgL2TCFRJ_Je0_eDT-547">
          <mxGeometry x="644" y="472.5" width="44" height="23" as="geometry" />
        </mxCell>
        <mxCell id="LpadgL2TCFRJ_Je0_eDT-646" value="" style="endArrow=none;html=1;rounded=0;exitX=0.5;exitY=1;exitDx=0;exitDy=0;" edge="1" parent="LpadgL2TCFRJ_Je0_eDT-547" source="LpadgL2TCFRJ_Je0_eDT-642">
          <mxGeometry width="50" height="50" relative="1" as="geometry">
            <mxPoint x="714.21" y="496.5" as="sourcePoint" />
            <mxPoint x="714.71" y="468.5" as="targetPoint" />
          </mxGeometry>
        </mxCell>
        <mxCell id="LpadgL2TCFRJ_Je0_eDT-647" value="" style="edgeStyle=orthogonalEdgeStyle;rounded=0;orthogonalLoop=1;jettySize=auto;html=1;" edge="1" parent="LpadgL2TCFRJ_Je0_eDT-547" source="LpadgL2TCFRJ_Je0_eDT-648" target="LpadgL2TCFRJ_Je0_eDT-651">
          <mxGeometry relative="1" as="geometry" />
        </mxCell>
        <mxCell id="LpadgL2TCFRJ_Je0_eDT-648" value="&lt;div style=&quot;&quot;&gt;&amp;nbsp; &amp;amp;&lt;/div&gt;" style="rounded=0;whiteSpace=wrap;html=1;fillColor=#FFFBF2;align=center;shadow=1;strokeWidth=1;" vertex="1" parent="LpadgL2TCFRJ_Je0_eDT-547">
          <mxGeometry x="549" y="388" width="38" height="30" as="geometry" />
        </mxCell>
        <mxCell id="LpadgL2TCFRJ_Je0_eDT-649" style="edgeStyle=orthogonalEdgeStyle;rounded=0;orthogonalLoop=1;jettySize=auto;html=1;exitX=0.25;exitY=0;exitDx=0;exitDy=0;entryX=0.25;entryY=1;entryDx=0;entryDy=0;endArrow=none;endFill=0;strokeColor=default;" edge="1" parent="LpadgL2TCFRJ_Je0_eDT-547" source="LpadgL2TCFRJ_Je0_eDT-648" target="LpadgL2TCFRJ_Je0_eDT-648">
          <mxGeometry relative="1" as="geometry">
            <Array as="points">
              <mxPoint x="558" y="388" />
              <mxPoint x="558" y="418" />
            </Array>
          </mxGeometry>
        </mxCell>
        <mxCell id="LpadgL2TCFRJ_Je0_eDT-650" style="edgeStyle=orthogonalEdgeStyle;rounded=0;orthogonalLoop=1;jettySize=auto;html=1;entryX=1;entryY=0.5;entryDx=0;entryDy=0;" edge="1" parent="LpadgL2TCFRJ_Je0_eDT-547" source="LpadgL2TCFRJ_Je0_eDT-651" target="LpadgL2TCFRJ_Je0_eDT-659">
          <mxGeometry relative="1" as="geometry" />
        </mxCell>
        <mxCell id="LpadgL2TCFRJ_Je0_eDT-651" value="&lt;div style=&quot;&quot;&gt;&amp;nbsp; &amp;nbsp;X&lt;/div&gt;" style="rounded=0;whiteSpace=wrap;html=1;fillColor=#FFFBF2;align=center;shadow=1;strokeWidth=1;" vertex="1" parent="LpadgL2TCFRJ_Je0_eDT-547">
          <mxGeometry x="476" y="388" width="38" height="30" as="geometry" />
        </mxCell>
        <mxCell id="LpadgL2TCFRJ_Je0_eDT-652" style="edgeStyle=orthogonalEdgeStyle;rounded=0;orthogonalLoop=1;jettySize=auto;html=1;exitX=0.25;exitY=0;exitDx=0;exitDy=0;entryX=0.25;entryY=1;entryDx=0;entryDy=0;endArrow=none;endFill=0;strokeColor=default;" edge="1" parent="LpadgL2TCFRJ_Je0_eDT-547" source="LpadgL2TCFRJ_Je0_eDT-651" target="LpadgL2TCFRJ_Je0_eDT-651">
          <mxGeometry relative="1" as="geometry">
            <Array as="points">
              <mxPoint x="485" y="388" />
              <mxPoint x="485" y="418" />
            </Array>
          </mxGeometry>
        </mxCell>
        <mxCell id="LpadgL2TCFRJ_Je0_eDT-653" value="J2" style="text;html=1;strokeColor=none;fillColor=none;align=center;verticalAlign=middle;whiteSpace=wrap;rounded=0;" vertex="1" parent="LpadgL2TCFRJ_Je0_eDT-547">
          <mxGeometry x="1128.0000000000002" y="135" width="25" height="21.5" as="geometry" />
        </mxCell>
        <mxCell id="LpadgL2TCFRJ_Je0_eDT-654" value="J4" style="text;html=1;strokeColor=none;fillColor=none;align=center;verticalAlign=middle;whiteSpace=wrap;rounded=0;" vertex="1" parent="LpadgL2TCFRJ_Je0_eDT-547">
          <mxGeometry x="1197.0000000000002" y="135" width="25" height="21.5" as="geometry" />
        </mxCell>
        <mxCell id="LpadgL2TCFRJ_Je0_eDT-655" value="J5" style="text;html=1;strokeColor=none;fillColor=none;align=center;verticalAlign=middle;whiteSpace=wrap;rounded=0;" vertex="1" parent="LpadgL2TCFRJ_Je0_eDT-547">
          <mxGeometry x="850.0000000000002" y="423.5" width="25" height="21.5" as="geometry" />
        </mxCell>
        <mxCell id="LpadgL2TCFRJ_Je0_eDT-656" value="J7" style="text;html=1;strokeColor=none;fillColor=none;align=center;verticalAlign=middle;whiteSpace=wrap;rounded=0;" vertex="1" parent="LpadgL2TCFRJ_Je0_eDT-547">
          <mxGeometry x="915.0000000000002" y="423.5" width="25" height="21.5" as="geometry" />
        </mxCell>
        <mxCell id="LpadgL2TCFRJ_Je0_eDT-657" value="J6" style="text;html=1;strokeColor=none;fillColor=none;align=center;verticalAlign=middle;whiteSpace=wrap;rounded=0;" vertex="1" parent="LpadgL2TCFRJ_Je0_eDT-547">
          <mxGeometry x="558.5000000000002" y="423.5" width="25" height="21.5" as="geometry" />
        </mxCell>
        <mxCell id="LpadgL2TCFRJ_Je0_eDT-658" value="J8" style="text;html=1;strokeColor=none;fillColor=none;align=center;verticalAlign=middle;whiteSpace=wrap;rounded=0;" vertex="1" parent="LpadgL2TCFRJ_Je0_eDT-547">
          <mxGeometry x="482.5000000000002" y="423.5" width="25" height="21.5" as="geometry" />
        </mxCell>
        <mxCell id="LpadgL2TCFRJ_Je0_eDT-659" value="&lt;br&gt;" style="rounded=0;whiteSpace=wrap;html=1;fillColor=#fffbf2;shadow=1;" vertex="1" parent="LpadgL2TCFRJ_Je0_eDT-547">
          <mxGeometry x="265.5" y="366" width="153" height="74" as="geometry" />
        </mxCell>
        <mxCell id="LpadgL2TCFRJ_Je0_eDT-660" value="" style="endArrow=none;html=1;rounded=0;exitX=0;exitY=0.75;exitDx=0;exitDy=0;entryX=1;entryY=0.75;entryDx=0;entryDy=0;" edge="1" parent="LpadgL2TCFRJ_Je0_eDT-547">
          <mxGeometry width="50" height="50" relative="1" as="geometry">
            <mxPoint x="265.5" y="411" as="sourcePoint" />
            <mxPoint x="418.5" y="411" as="targetPoint" />
          </mxGeometry>
        </mxCell>
        <mxCell id="LpadgL2TCFRJ_Je0_eDT-661" value="Перейти к поиску вакансии" style="text;html=1;strokeColor=none;fillColor=none;align=center;verticalAlign=middle;whiteSpace=wrap;rounded=0;" vertex="1" parent="LpadgL2TCFRJ_Je0_eDT-547">
          <mxGeometry x="288.5" y="372" width="106" height="30" as="geometry" />
        </mxCell>
        <mxCell id="LpadgL2TCFRJ_Je0_eDT-662" value="1.1.9" style="text;html=1;strokeColor=none;fillColor=none;align=left;verticalAlign=middle;whiteSpace=wrap;rounded=0;" vertex="1" parent="LpadgL2TCFRJ_Je0_eDT-547">
          <mxGeometry x="271.5" y="415" width="44" height="23" as="geometry" />
        </mxCell>
        <mxCell id="LpadgL2TCFRJ_Je0_eDT-663" value="" style="endArrow=none;html=1;rounded=0;exitX=0.5;exitY=1;exitDx=0;exitDy=0;" edge="1" parent="LpadgL2TCFRJ_Je0_eDT-547" source="LpadgL2TCFRJ_Je0_eDT-659">
          <mxGeometry width="50" height="50" relative="1" as="geometry">
            <mxPoint x="341.71000000000004" y="439" as="sourcePoint" />
            <mxPoint x="342.21000000000004" y="411" as="targetPoint" />
          </mxGeometry>
        </mxCell>
      </root>
    </mxGraphModel>
  </diagram>
</mxfile>
